<?xml version="1.0" standalone="no"?>
<!DOCTYPE svg PUBLIC "-//W3C//DTD SVG 20010904//EN"
 "http://www.w3.org/TR/2001/REC-SVG-20010904/DTD/svg10.dtd">
<svg version="1.0" xmlns="http://www.w3.org/2000/svg"
 width="499.000000pt" height="506.000000pt" viewBox="0 0 499.000000 506.000000"
 preserveAspectRatio="xMidYMid meet">

<g transform="translate(0.000000,506.000000) scale(0.100000,-0.100000)"
fill="#000000" stroke="none">
<path d="M2260 5010 c-1136 -118 -2024 -965 -2196 -2095 -25 -167 -26 -533 -1
-695 87 -568 334 -1046 738 -1435 385 -368 894 -608 1411 -664 125 -14 431
-14 556 0 306 33 632 137 906 290 201 112 352 225 530 399 208 203 347 394
476 655 172 347 245 637 257 1021 14 415 -65 786 -247 1159 -354 727 -1038
1226 -1850 1350 -124 19 -459 27 -580 15z m413 -312 l129 -3 -101 -73 c-56
-41 -101 -79 -101 -86 0 -7 16 -59 35 -116 19 -58 34 -108 32 -113 -1 -5 -14
0 -27 11 -14 10 -59 44 -101 75 l-77 56 -98 -74 c-55 -41 -102 -75 -106 -75
-4 0 8 44 26 98 52 156 53 144 -2 182 -26 19 -72 52 -102 74 l-55 41 130 5
129 5 32 100 c18 55 36 109 39 120 5 14 18 -15 48 -102 l41 -122 129 -3z m44
-519 c528 -73 992 -406 1232 -886 178 -356 216 -778 105 -1168 -144 -503 -546
-922 -1041 -1084 -196 -64 -278 -76 -513 -76 -186 0 -229 4 -320 23 -501 109
-905 420 -1129 868 -225 451 -223 996 5 1444 66 131 126 220 222 334 231 272
597 478 952 536 41 6 82 13 90 15 41 8 328 4 397 -6z m1027 -2953 c15 -24 15
-25 -59 -82 -41 -31 -75 -60 -75 -63 0 -4 12 -22 28 -40 l27 -32 74 55 74 55
20 -25 c19 -25 19 -26 1 -39 -11 -7 -45 -33 -76 -57 l-56 -44 31 -41 32 -40
78 59 c43 33 79 58 80 56 1 -1 10 -13 20 -25 18 -21 18 -22 -94 -107 -62 -48
-116 -85 -120 -84 -4 2 -59 71 -123 155 l-115 151 112 85 c62 47 115 86 118
86 4 1 14 -10 23 -23z m-2335 -70 c105 -80 109 -84 95 -105 -8 -11 -20 -21
-25 -21 -6 0 -43 25 -82 55 l-72 56 -27 -33 c-15 -18 -28 -36 -28 -40 0 -3 32
-30 70 -59 39 -30 70 -57 70 -60 0 -4 -8 -16 -17 -28 l-18 -21 -74 57 -74 56
-28 -34 c-16 -19 -29 -38 -29 -44 0 -5 34 -36 76 -68 l76 -59 -22 -23 -22 -23
-107 82 c-59 44 -108 86 -110 91 -3 12 219 305 231 305 5 0 57 -38 117 -84z
m270 -168 c75 -39 137 -72 139 -73 10 -8 -127 -256 -162 -292 l-41 -43 -127
65 c-71 37 -128 69 -128 72 0 9 174 343 178 343 3 0 66 -32 141 -72z m1813 47
c6 -14 9 -27 7 -29 -2 -2 -44 -25 -94 -52 -49 -26 -92 -49 -93 -50 -7 -5 111
-224 120 -224 12 0 108 49 108 56 0 12 -41 84 -48 84 -4 0 -17 -7 -29 -15 -21
-15 -23 -14 -38 15 l-15 30 69 35 70 35 50 -95 c28 -51 51 -97 51 -102 0 -9
-251 -143 -268 -143 -9 0 -182 320 -182 337 0 8 256 141 273 142 4 1 13 -10
19 -24z m-298 -207 c41 -137 41 -137 16 -146 -21 -8 -20 -11 29 -69 28 -34 51
-65 51 -70 0 -5 -18 -14 -40 -20 l-40 -10 -54 67 c-47 58 -58 67 -81 63 -14
-3 -27 -9 -30 -13 -2 -4 5 -36 15 -71 11 -35 20 -69 20 -76 0 -11 -78 -40 -84
-31 -5 7 -106 354 -106 364 0 8 228 86 272 93 4 1 18 -36 32 -81z m-1272 54
c6 -6 -9 -70 -35 -161 -25 -83 -42 -153 -39 -155 12 -7 115 -36 118 -33 2 2
22 70 46 153 23 82 44 151 45 153 2 3 23 -2 47 -10 l44 -14 -23 -75 c-12 -41
-37 -125 -54 -186 l-33 -111 -144 42 c-79 23 -147 45 -151 49 -3 3 10 61 30
129 19 67 43 148 52 181 l17 58 36 -5 c19 -4 39 -10 44 -15z m948 -91 c0 -34
-6 -36 -95 -46 -100 -10 -106 -17 -88 -83 5 -21 10 -23 47 -18 23 3 65 8 94
12 l52 7 0 -35 0 -35 -91 -8 -91 -7 4 -49 c3 -27 7 -51 9 -53 2 -2 45 2 94 9
50 7 93 10 98 8 8 -5 10 -63 2 -63 -3 0 -67 -7 -141 -16 -75 -8 -137 -14 -139
-12 -6 6 -47 379 -42 384 5 6 201 31 255 33 29 1 32 -2 32 -28z m-613 7 c6 -7
24 -56 42 -108 17 -52 35 -101 39 -108 6 -8 28 24 66 98 52 100 60 110 84 109
15 -1 36 -4 47 -7 20 -7 20 -9 5 -197 l-15 -190 -39 -3 c-21 -2 -42 0 -46 5
-4 4 -4 49 1 98 4 50 6 91 4 93 -2 2 -18 -24 -36 -58 -34 -60 -35 -61 -74 -58
-39 3 -40 4 -66 72 l-26 70 -7 -95 c-4 -52 -10 -97 -14 -100 -4 -4 -24 -4 -44
-2 -45 6 -43 -4 -27 207 14 194 12 186 58 186 21 0 43 -6 48 -12z"/>
<path d="M2279 4135 c-446 -64 -847 -319 -1092 -690 -129 -196 -209 -404 -248
-645 -17 -103 -14 -365 4 -475 86 -506 408 -945 852 -1160 258 -124 475 -171
755 -162 360 12 675 128 950 352 362 295 571 736 573 1210 1 309 -74 580 -234
842 -94 154 -266 337 -419 447 -141 102 -365 207 -535 250 -175 45 -426 58
-606 31z m491 -140 c593 -116 1053 -586 1155 -1179 20 -119 20 -365 -1 -487
-51 -298 -185 -554 -408 -775 -208 -206 -420 -324 -706 -391 -103 -24 -134
-27 -305 -28 -200 0 -294 14 -457 66 -96 31 -261 113 -356 176 -186 123 -383
346 -480 544 -109 221 -152 407 -152 660 0 298 73 544 233 787 233 354 599
582 1027 642 94 13 351 4 450 -15z"/>
<path d="M1590 2505 l0 -605 289 0 c280 0 293 -1 368 -25 43 -13 99 -38 126
-54 26 -17 47 -27 48 -23 9 79 -32 474 -78 737 -29 166 -28 163 -18 188 5 12
3 17 -8 17 -25 0 -47 29 -47 61 0 24 -4 29 -26 29 -20 0 -29 8 -44 43 -10 23
-22 54 -25 70 l-7 27 103 0 c97 1 102 2 73 14 -17 8 -53 35 -80 62 -38 36 -60
49 -94 55 -25 4 -165 8 -312 8 l-268 1 0 -605z m382 -97 c-13 -13 -24 5 -16
27 7 16 8 16 17 0 6 -11 6 -20 -1 -27z"/>
<path d="M2810 3103 c-14 -2 -50 -28 -79 -58 -30 -30 -64 -58 -75 -62 -13 -5
21 -10 85 -13 l107 -5 -25 -67 c-21 -57 -29 -68 -48 -68 -18 0 -25 -7 -30 -32
-9 -41 -22 -58 -46 -58 -21 0 -24 -11 -9 -26 6 -6 1 -56 -15 -139 -41 -227
-97 -736 -82 -751 3 -3 27 6 54 20 100 50 148 56 452 56 l281 0 0 605 0 605
-272 -1 c-150 -1 -284 -4 -298 -6z m208 -384 c-17 -10 -28 -2 -21 17 4 11 8
12 20 3 11 -10 11 -14 1 -20z"/>
<path d="M1498 2428 c1 -326 2 -598 2 -605 0 -8 92 -12 338 -16 297 -4 348 -7
432 -26 52 -12 111 -24 130 -27 l35 -5 -25 21 c-14 12 -47 33 -74 47 -114 58
-110 57 -446 63 l-315 5 -3 568 -2 567 -38 0 -37 0 3 -592z"/>
<path d="M3398 2453 l-3 -568 -315 -5 -315 -5 -64 -28 c-87 -37 -111 -54 -111
-78 0 -18 4 -20 28 -14 169 44 216 48 552 54 l335 6 2 603 3 602 -55 0 -55 0
-2 -567z"/>
<path d="M1527 844 c-32 -64 -57 -117 -55 -119 2 -1 26 -14 54 -28 l51 -26 20
22 c29 32 115 196 109 206 -5 7 -110 61 -119 61 -1 0 -28 -52 -60 -116z"/>
<path d="M3038 804 l-47 -14 14 -46 c7 -25 15 -47 17 -49 2 -1 27 5 56 13 58
16 58 18 32 87 -11 29 -9 28 -72 9z"/>
<path d="M4124 678 l-19 -23 23 19 c12 11 22 21 22 23 0 8 -8 2 -26 -19z"/>
<path d="M4059 623 c-13 -16 -12 -17 4 -4 16 13 21 21 13 21 -2 0 -10 -8 -17
-17z"/>
<path d="M2728 73 c7 -3 16 -2 19 1 4 3 -2 6 -13 5 -11 0 -14 -3 -6 -6z"/>
<path d="M2428 63 c39 -2 105 -2 145 0 39 1 7 3 -73 3 -80 0 -112 -2 -72 -3z"/>
</g>
</svg>
