<?xml version="1.0" encoding="UTF-8"?>
<svg version="1.1" xmlns="http://www.w3.org/2000/svg" width="1024" height="1024">
<path d="M0 0 C0.94525529 0.00234117 1.89051059 0.00468233 2.86440998 0.00709444 C4.36243463 0.00491428 4.36243463 0.00491428 5.89072239 0.00269008 C9.28198317 -0.0009981 12.67319979 0.00252945 16.06446034 0.00595194 C18.50236795 0.00480123 20.9402754 0.00321405 23.37818247 0.0012247 C28.70176134 -0.00209575 34.02532683 -0.0022697 39.34890515 0.00027186 C47.2650083 0.00404093 55.18110286 0.00212761 63.09720595 -0.00093645 C77.23206765 -0.00621355 91.36692483 -0.00574129 105.50178696 -0.00285754 C117.87112319 -0.00034624 130.24045777 0.00031671 142.6097942 -0.00088018 C143.83846982 -0.00099476 143.83846982 -0.00099476 145.09196718 -0.00111165 C148.41667048 -0.00142297 151.74137379 -0.00174137 155.06607709 -0.00207142 C186.28175669 -0.00513338 217.4974334 -0.00235226 248.71311256 0.00302548 C276.47252332 0.00777141 304.2319295 0.0073468 331.99134022 0.00256449 C363.14835912 -0.00278515 394.30537548 -0.00491626 425.46239477 -0.00182325 C428.78119141 -0.00150251 432.09998804 -0.00118967 435.41878468 -0.00088018 C436.23601269 -0.0008011 437.0532407 -0.00072203 437.8952332 -0.00064055 C450.25960091 0.00049898 462.62396678 -0.00083719 474.98833424 -0.00335974 C489.04110741 -0.00621237 503.09387535 -0.00551835 517.14664787 -0.00007899 C525.02045251 0.0028678 532.89424584 0.00303391 540.76805021 -0.00072517 C546.63107322 -0.00321658 552.49408613 -0.00053487 558.357108 0.00424941 C560.74133298 0.00537478 563.12555947 0.0047798 565.50978351 0.00237362 C568.72793429 -0.00062727 571.94602155 0.00241089 575.16416889 0.00709444 C576.10942419 0.00475328 577.05467948 0.00241211 578.02857888 0 C584.4001391 0.01878525 584.4001391 0.01878525 585.51428944 1.13293558 C586.84315017 1.27679662 588.17877531 1.35969846 589.51428944 1.41418558 C590.31866444 1.4515684 591.12303944 1.48895121 591.95178944 1.52746683 C593.22022694 1.57967386 593.22022694 1.57967386 594.51428944 1.63293558 C596.18113915 1.70154068 597.84782718 1.77423782 599.51428944 1.85168558 C600.25678944 1.88197855 600.99928944 1.91227152 601.76428944 1.94348246 C603.51428944 2.13293558 603.51428944 2.13293558 604.51428944 3.13293558 C606.12303944 3.34949808 606.12303944 3.34949808 607.76428944 3.57043558 C611.03662218 4.0612855 613.52690332 4.7750328 616.51428944 6.13293558 C616.51428944 6.79293558 616.51428944 7.45293558 616.51428944 8.13293558 C618.49428944 8.13293558 620.47428944 8.13293558 622.51428944 8.13293558 C622.51428944 8.79293558 622.51428944 9.45293558 622.51428944 10.13293558 C624.49428944 10.13293558 626.47428944 10.13293558 628.51428944 10.13293558 C628.51428944 10.79293558 628.51428944 11.45293558 628.51428944 12.13293558 C629.83428944 12.13293558 631.15428944 12.13293558 632.51428944 12.13293558 C632.51428944 12.79293558 632.51428944 13.45293558 632.51428944 14.13293558 C634.15397694 14.56606058 634.15397694 14.56606058 635.82678944 15.00793558 C639.51428944 16.13293558 639.51428944 16.13293558 642.51428944 18.13293558 C642.51428944 18.79293558 642.51428944 19.45293558 642.51428944 20.13293558 C643.83428944 20.13293558 645.15428944 20.13293558 646.51428944 20.13293558 C646.51428944 20.79293558 646.51428944 21.45293558 646.51428944 22.13293558 C647.17428944 22.13293558 647.83428944 22.13293558 648.51428944 22.13293558 C648.51428944 22.79293558 648.51428944 23.45293558 648.51428944 24.13293558 C649.44241444 24.34949808 649.44241444 24.34949808 650.38928944 24.57043558 C652.51428944 25.13293558 652.51428944 25.13293558 654.51428944 26.13293558 C654.51428944 26.79293558 654.51428944 27.45293558 654.51428944 28.13293558 C655.17428944 28.13293558 655.83428944 28.13293558 656.51428944 28.13293558 C656.51428944 28.79293558 656.51428944 29.45293558 656.51428944 30.13293558 C657.17428944 30.13293558 657.83428944 30.13293558 658.51428944 30.13293558 C658.51428944 30.79293558 658.51428944 31.45293558 658.51428944 32.13293558 C659.17428944 32.13293558 659.83428944 32.13293558 660.51428944 32.13293558 C660.51428944 32.79293558 660.51428944 33.45293558 660.51428944 34.13293558 C661.17428944 34.13293558 661.83428944 34.13293558 662.51428944 34.13293558 C662.51428944 34.79293558 662.51428944 35.45293558 662.51428944 36.13293558 C663.17428944 36.13293558 663.83428944 36.13293558 664.51428944 36.13293558 C664.51428944 36.79293558 664.51428944 37.45293558 664.51428944 38.13293558 C665.17428944 38.13293558 665.83428944 38.13293558 666.51428944 38.13293558 C666.51428944 38.79293558 666.51428944 39.45293558 666.51428944 40.13293558 C667.17428944 40.13293558 667.83428944 40.13293558 668.51428944 40.13293558 C668.51428944 40.79293558 668.51428944 41.45293558 668.51428944 42.13293558 C669.17428944 42.13293558 669.83428944 42.13293558 670.51428944 42.13293558 C670.51428944 42.79293558 670.51428944 43.45293558 670.51428944 44.13293558 C671.17428944 44.13293558 671.83428944 44.13293558 672.51428944 44.13293558 C672.51428944 44.79293558 672.51428944 45.45293558 672.51428944 46.13293558 C673.17428944 46.13293558 673.83428944 46.13293558 674.51428944 46.13293558 C674.51428944 46.79293558 674.51428944 47.45293558 674.51428944 48.13293558 C675.17428944 48.13293558 675.83428944 48.13293558 676.51428944 48.13293558 C676.51428944 48.79293558 676.51428944 49.45293558 676.51428944 50.13293558 C677.17428944 50.13293558 677.83428944 50.13293558 678.51428944 50.13293558 C679.17428944 52.11293558 679.83428944 54.09293558 680.51428944 56.13293558 C681.17428944 56.13293558 681.83428944 56.13293558 682.51428944 56.13293558 C682.51428944 57.45293558 682.51428944 58.77293558 682.51428944 60.13293558 C683.17428944 60.13293558 683.83428944 60.13293558 684.51428944 60.13293558 C690.51428944 70.33293558 690.51428944 70.33293558 690.51428944 76.13293558 C691.17428944 76.13293558 691.83428944 76.13293558 692.51428944 76.13293558 C692.82173084 77.19834574 692.82173084 77.19834574 693.13538319 78.28527933 C693.40479725 79.2043809 693.67421131 80.12348246 693.95178944 81.07043558 C694.21862538 81.98695902 694.48546131 82.90348246 694.76038319 83.84777933 C695.30454995 86.07318489 695.30454995 86.07318489 696.51428944 87.13293558 C696.84762277 89.46626892 697.18095611 91.79960225 697.51428944 94.13293558 C697.84428944 94.46293558 698.17428944 94.79293558 698.51428944 95.13293558 C698.83526695 97.45110647 699.026499 99.77072915 699.23303944 102.10168558 C699.30494781 104.12474151 699.30494781 104.12474151 700.51428944 105.13293558 C700.61201212 106.67611462 700.63951928 108.22378191 700.6396386 109.77005202 C700.64339388 111.28672718 700.64339388 111.28672718 700.64722502 112.83404225 C700.64488386 113.96058858 700.64254269 115.08713491 700.64013058 116.24781901 C700.64158402 117.43728833 700.64303746 118.62675765 700.64453495 119.8522715 C700.64757665 123.18360153 700.64608283 126.51487596 700.64275699 129.84620224 C700.64023619 133.45915423 700.64347385 137.07210159 700.64600033 140.68505293 C700.64962502 147.02702894 700.6494945 153.36899644 700.64695317 159.71097285 C700.64318442 169.14141736 700.64509724 178.57185464 700.64816147 188.0022991 C700.65343882 204.84105001 700.65296622 221.67979713 700.65008256 238.5185484 C700.64757135 253.25403505 700.64690827 267.9895203 700.6481052 282.72500712 C700.64821978 284.18866852 700.64821978 284.18866852 700.64833667 285.68189884 C700.64864799 289.64244719 700.64896639 293.60299554 700.64929644 297.56354389 C700.65235846 334.74984275 700.64957719 371.93613919 700.64419954 409.12243767 C700.6394536 442.192019 700.63987822 475.26159648 700.64466053 508.33117777 C700.65001007 545.44755811 700.65214134 582.56393631 700.64904827 619.68031698 C700.64872753 623.63383267 700.64841469 627.58734836 700.6481052 631.54086405 C700.64802613 632.51438807 700.64794705 633.48791208 700.64786558 634.49093682 C700.646726 649.22057217 700.64806229 663.95020597 700.65058476 678.6798411 C700.65343728 695.42072252 700.65274362 712.16159955 700.64730401 728.90248042 C700.64435703 738.28265466 700.64419139 747.66281939 700.64795019 757.04299339 C700.65018075 763.29679567 700.6488186 769.55059028 700.64444542 775.80439143 C700.64205059 779.3754456 700.64128623 782.94648081 700.6448514 786.51753443 C700.64863986 790.35105066 700.64481484 794.18453637 700.64013058 798.01805216 C700.64247175 799.14459849 700.64481291 800.27114482 700.64722502 801.43182892 C700.6447215 802.44294569 700.64221799 803.45406247 700.6396386 804.49581915 C700.63953696 805.81297388 700.63953696 805.81297388 700.63943327 807.1567378 C700.51428944 809.13293558 700.51428944 809.13293558 699.51428944 810.13293558 C699.28001166 812.1488814 699.1009282 814.17140959 698.95178944 816.19543558 C698.86800038 817.30016215 698.78421131 818.40488871 698.69788319 819.54309183 C698.63729725 820.39774027 698.57671131 821.25238871 698.51428944 822.13293558 C697.85428944 822.13293558 697.19428944 822.13293558 696.51428944 822.13293558 C696.60710194 823.86543558 696.60710194 823.86543558 696.70178944 825.63293558 C696.68885808 829.34423603 695.95600261 832.25145406 694.51428944 835.70324808 C693.16899635 838.97188989 692.00404525 842.30120559 690.82678944 845.63293558 C690.38979725 846.86012308 689.95280506 848.08731058 689.50257069 849.35168558 C689.17643788 850.26949808 688.85030506 851.18731058 688.51428944 852.13293558 C687.85428944 852.13293558 687.19428944 852.13293558 686.51428944 852.13293558 C686.36991444 852.75168558 686.22553944 853.37043558 686.07678944 854.00793558 C685.51428944 856.13293558 685.51428944 856.13293558 684.51428944 858.13293558 C683.85428944 858.13293558 683.19428944 858.13293558 682.51428944 858.13293558 C682.51428944 859.45293558 682.51428944 860.77293558 682.51428944 862.13293558 C681.85428944 862.13293558 681.19428944 862.13293558 680.51428944 862.13293558 C680.51428944 862.79293558 680.51428944 863.45293558 680.51428944 864.13293558 C679.85428944 864.13293558 679.19428944 864.13293558 678.51428944 864.13293558 C678.51428944 865.45293558 678.51428944 866.77293558 678.51428944 868.13293558 C677.85428944 868.13293558 677.19428944 868.13293558 676.51428944 868.13293558 C676.51428944 868.79293558 676.51428944 869.45293558 676.51428944 870.13293558 C675.85428944 870.13293558 675.19428944 870.13293558 674.51428944 870.13293558 C674.51428944 870.79293558 674.51428944 871.45293558 674.51428944 872.13293558 C673.85428944 872.13293558 673.19428944 872.13293558 672.51428944 872.13293558 C672.51428944 873.45293558 672.51428944 874.77293558 672.51428944 876.13293558 C671.85428944 876.13293558 671.19428944 876.13293558 670.51428944 876.13293558 C670.51428944 876.79293558 670.51428944 877.45293558 670.51428944 878.13293558 C669.85428944 878.13293558 669.19428944 878.13293558 668.51428944 878.13293558 C668.51428944 878.79293558 668.51428944 879.45293558 668.51428944 880.13293558 C667.85428944 880.13293558 667.19428944 880.13293558 666.51428944 880.13293558 C666.51428944 880.79293558 666.51428944 881.45293558 666.51428944 882.13293558 C665.85428944 882.13293558 665.19428944 882.13293558 664.51428944 882.13293558 C664.51428944 882.79293558 664.51428944 883.45293558 664.51428944 884.13293558 C663.85428944 884.13293558 663.19428944 884.13293558 662.51428944 884.13293558 C662.51428944 884.79293558 662.51428944 885.45293558 662.51428944 886.13293558 C661.85428944 886.13293558 661.19428944 886.13293558 660.51428944 886.13293558 C660.51428944 886.79293558 660.51428944 887.45293558 660.51428944 888.13293558 C659.85428944 888.13293558 659.19428944 888.13293558 658.51428944 888.13293558 C658.51428944 888.79293558 658.51428944 889.45293558 658.51428944 890.13293558 C657.19428944 890.13293558 655.87428944 890.13293558 654.51428944 890.13293558 C654.51428944 890.79293558 654.51428944 891.45293558 654.51428944 892.13293558 C653.85428944 892.13293558 653.19428944 892.13293558 652.51428944 892.13293558 C652.51428944 892.79293558 652.51428944 893.45293558 652.51428944 894.13293558 C651.85428944 894.13293558 651.19428944 894.13293558 650.51428944 894.13293558 C650.51428944 894.79293558 650.51428944 895.45293558 650.51428944 896.13293558 C649.19428944 896.13293558 647.87428944 896.13293558 646.51428944 896.13293558 C646.51428944 896.79293558 646.51428944 897.45293558 646.51428944 898.13293558 C645.85428944 898.13293558 645.19428944 898.13293558 644.51428944 898.13293558 C644.51428944 898.79293558 644.51428944 899.45293558 644.51428944 900.13293558 C643.19428944 900.13293558 641.87428944 900.13293558 640.51428944 900.13293558 C640.51428944 900.79293558 640.51428944 901.45293558 640.51428944 902.13293558 C639.85428944 902.13293558 639.19428944 902.13293558 638.51428944 902.13293558 C638.51428944 902.79293558 638.51428944 903.45293558 638.51428944 904.13293558 C637.19428944 904.13293558 635.87428944 904.13293558 634.51428944 904.13293558 C634.51428944 904.79293558 634.51428944 905.45293558 634.51428944 906.13293558 C633.19428944 906.13293558 631.87428944 906.13293558 630.51428944 906.13293558 C630.51428944 906.79293558 630.51428944 907.45293558 630.51428944 908.13293558 C627.00652159 909.7364866 624.37074065 910.35330422 620.51428944 910.13293558 C620.51428944 910.79293558 620.51428944 911.45293558 620.51428944 912.13293558 C618.53428944 912.13293558 616.55428944 912.13293558 614.51428944 912.13293558 C614.51428944 912.79293558 614.51428944 913.45293558 614.51428944 914.13293558 C613.37991444 914.27731058 612.24553944 914.42168558 611.07678944 914.57043558 C607.70651743 914.74465036 607.70651743 914.74465036 606.51428944 916.13293558 C603.9353125 916.4553077 601.35497123 916.64560862 598.76428944 916.85168558 C596.54763592 916.89494224 596.54763592 916.89494224 595.51428944 918.13293558 C594.16553321 918.22972548 592.81174168 918.25740988 591.459517 918.25713408 C590.57858496 918.25938137 589.69765293 918.26162867 588.79002598 918.26394406 C587.31877087 918.26000354 587.31877087 918.26000354 585.81779343 918.25598341 C584.26360306 918.25771418 584.26360306 918.25771418 582.6780149 918.25947991 C579.15938912 918.26215503 575.64080787 918.25761709 572.12218434 918.2531901 C569.59281855 918.25362562 567.0634528 918.25450017 564.5340873 918.25577927 C559.01070515 918.25755698 553.48733713 918.25619941 547.96395642 918.25214106 C539.75080476 918.24612308 531.53765992 918.24580366 523.32450646 918.24668305 C509.51082181 918.24799913 495.69714193 918.24464727 481.88345867 918.23866564 C468.19958621 918.23275536 454.51571573 918.22890106 440.83184201 918.22781283 C439.98208017 918.22774409 439.13231833 918.22767535 438.25680614 918.22760452 C433.94156757 918.22726621 429.62632899 918.22696482 425.31109042 918.22667765 C394.71972376 918.22457537 364.12835971 918.21783282 333.53699452 918.20837504 C303.81173424 918.19919561 274.08647468 918.19210954 244.36121327 918.18786722 C243.44548852 918.1877357 242.52976377 918.18760417 241.58628979 918.18746866 C232.39048526 918.18615018 223.19468073 918.18487436 213.99887619 918.1836298 C195.26476117 918.18109336 176.53064621 918.17827211 157.79653126 918.17527872 C156.93510384 918.17514143 156.07367642 918.17500414 155.18614514 918.17486269 C97.62885882 918.16565685 40.07157397 918.1497903 -17.48571056 918.13293558 C-17.48571056 917.47293558 -17.48571056 916.81293558 -17.48571056 916.13293558 C-21.44571056 916.13293558 -25.40571056 916.13293558 -29.48571056 916.13293558 C-29.48571056 915.47293558 -29.48571056 914.81293558 -29.48571056 914.13293558 C-31.03258556 914.22574808 -31.03258556 914.22574808 -32.61071056 914.32043558 C-36.78566064 914.11842187 -38.86454381 913.10096099 -42.48571056 911.13293558 C-45.22143641 910.43386145 -45.22143641 910.43386145 -47.48571056 910.13293558 C-47.48571056 909.47293558 -47.48571056 908.81293558 -47.48571056 908.13293558 C-48.80571056 908.13293558 -50.12571056 908.13293558 -51.48571056 908.13293558 C-51.48571056 907.47293558 -51.48571056 906.81293558 -51.48571056 906.13293558 C-52.24883556 905.98856058 -53.01196056 905.84418558 -53.79821056 905.69543558 C-56.48571056 905.13293558 -56.48571056 905.13293558 -59.48571056 904.13293558 C-59.48571056 903.47293558 -59.48571056 902.81293558 -59.48571056 902.13293558 C-60.80571056 902.13293558 -62.12571056 902.13293558 -63.48571056 902.13293558 C-63.48571056 901.47293558 -63.48571056 900.81293558 -63.48571056 900.13293558 C-64.14571056 900.13293558 -64.80571056 900.13293558 -65.48571056 900.13293558 C-65.48571056 899.47293558 -65.48571056 898.81293558 -65.48571056 898.13293558 C-66.80571056 898.13293558 -68.12571056 898.13293558 -69.48571056 898.13293558 C-69.48571056 897.47293558 -69.48571056 896.81293558 -69.48571056 896.13293558 C-70.14571056 896.13293558 -70.80571056 896.13293558 -71.48571056 896.13293558 C-71.48571056 895.47293558 -71.48571056 894.81293558 -71.48571056 894.13293558 C-72.14571056 894.13293558 -72.80571056 894.13293558 -73.48571056 894.13293558 C-73.48571056 893.47293558 -73.48571056 892.81293558 -73.48571056 892.13293558 C-74.14571056 892.13293558 -74.80571056 892.13293558 -75.48571056 892.13293558 C-75.48571056 891.47293558 -75.48571056 890.81293558 -75.48571056 890.13293558 C-77.46571056 889.47293558 -79.44571056 888.81293558 -81.48571056 888.13293558 C-81.48571056 887.47293558 -81.48571056 886.81293558 -81.48571056 886.13293558 C-82.14571056 886.13293558 -82.80571056 886.13293558 -83.48571056 886.13293558 C-83.48571056 885.47293558 -83.48571056 884.81293558 -83.48571056 884.13293558 C-84.14571056 884.13293558 -84.80571056 884.13293558 -85.48571056 884.13293558 C-85.48571056 883.47293558 -85.48571056 882.81293558 -85.48571056 882.13293558 C-86.14571056 882.13293558 -86.80571056 882.13293558 -87.48571056 882.13293558 C-87.48571056 881.47293558 -87.48571056 880.81293558 -87.48571056 880.13293558 C-88.14571056 880.13293558 -88.80571056 880.13293558 -89.48571056 880.13293558 C-89.48571056 879.47293558 -89.48571056 878.81293558 -89.48571056 878.13293558 C-90.14571056 878.13293558 -90.80571056 878.13293558 -91.48571056 878.13293558 C-91.48571056 877.47293558 -91.48571056 876.81293558 -91.48571056 876.13293558 C-92.14571056 876.13293558 -92.80571056 876.13293558 -93.48571056 876.13293558 C-93.48571056 874.81293558 -93.48571056 873.49293558 -93.48571056 872.13293558 C-94.14571056 872.13293558 -94.80571056 872.13293558 -95.48571056 872.13293558 C-95.48571056 871.47293558 -95.48571056 870.81293558 -95.48571056 870.13293558 C-96.14571056 870.13293558 -96.80571056 870.13293558 -97.48571056 870.13293558 C-97.48571056 868.81293558 -97.48571056 867.49293558 -97.48571056 866.13293558 C-98.14571056 866.13293558 -98.80571056 866.13293558 -99.48571056 866.13293558 C-99.48571056 865.47293558 -99.48571056 864.81293558 -99.48571056 864.13293558 C-100.14571056 864.13293558 -100.80571056 864.13293558 -101.48571056 864.13293558 C-103.48571056 861.13293558 -103.48571056 861.13293558 -103.48571056 858.13293558 C-104.14571056 858.13293558 -104.80571056 858.13293558 -105.48571056 858.13293558 C-105.48571056 856.81293558 -105.48571056 855.49293558 -105.48571056 854.13293558 C-106.14571056 854.13293558 -106.80571056 854.13293558 -107.48571056 854.13293558 C-107.48571056 852.81293558 -107.48571056 851.49293558 -107.48571056 850.13293558 C-108.14571056 850.13293558 -108.80571056 850.13293558 -109.48571056 850.13293558 C-109.48571056 848.81293558 -109.48571056 847.49293558 -109.48571056 846.13293558 C-110.14571056 846.13293558 -110.80571056 846.13293558 -111.48571056 846.13293558 C-111.6906715 845.42266215 -111.89563244 844.71238871 -112.10680431 843.98059183 C-112.37621837 843.06149027 -112.64563244 842.14238871 -112.92321056 841.19543558 C-113.32346447 839.82065043 -113.32346447 839.82065043 -113.73180431 838.41809183 C-114.27597107 836.19268628 -114.27597107 836.19268628 -115.48571056 835.13293558 C-115.52663994 832.79996125 -115.52812779 830.46588334 -115.48571056 828.13293558 C-116.14571056 828.13293558 -116.80571056 828.13293558 -117.48571056 828.13293558 C-117.57658947 827.17580668 -117.57658947 827.17580668 -117.66930431 826.19934183 C-117.75309337 825.37305277 -117.83688244 824.54676371 -117.92321056 823.69543558 C-118.0044215 822.87172465 -118.08563244 822.04801371 -118.16930431 821.19934183 C-118.27501871 819.14631533 -118.27501871 819.14631533 -119.48571056 818.13293558 C-119.63023774 816.6578644 -119.71265981 815.17657518 -119.76696056 813.69543558 C-119.80434337 812.80082621 -119.84172619 811.90621683 -119.88024181 810.98449808 C-119.95055431 809.08345642 -120.02086681 807.18241475 -120.09117931 805.28137308 C-120.12856212 804.38676371 -120.16594494 803.49215433 -120.20446056 802.57043558 C-120.23475353 801.74414652 -120.2650465 800.91785746 -120.29625744 800.06652933 C-120.27972715 798.12732402 -120.27972715 798.12732402 -121.48571056 797.13293558 C-121.58334389 795.62400551 -121.61094033 794.110497 -121.61105973 792.59841162 C-121.61356324 791.61022952 -121.61606676 790.62204741 -121.61864614 789.6039204 C-121.61630498 788.5030436 -121.61396381 787.4021668 -121.6115517 786.26793009 C-121.61300514 785.10547475 -121.61445858 783.9430194 -121.61595607 782.74533814 C-121.61899769 779.48977811 -121.61750401 776.2342549 -121.61417812 772.97869624 C-121.61165725 769.44787254 -121.614895 765.91705357 -121.61742145 762.38623053 C-121.6210461 756.18845256 -121.62091565 749.99068329 -121.61837429 743.79290491 C-121.6146055 734.57688043 -121.61651839 725.36086333 -121.6195826 716.1448389 C-121.62485991 699.68893957 -121.62438735 683.23304411 -121.62150368 666.7771444 C-121.61899246 652.37668791 -121.6183294 637.97623283 -121.61952633 623.57577616 C-121.61960271 622.62218344 -121.6196791 621.66859072 -121.6197578 620.68610125 C-121.62006911 616.81558406 -121.62038751 612.94506686 -121.62071756 609.07454967 C-121.62377958 572.73364824 -121.62099832 536.39274927 -121.61562066 500.05184822 C-121.61087473 467.73414945 -121.61129934 435.41645463 -121.61608166 403.0987559 C-121.62143121 366.82617895 -121.62356246 330.55360419 -121.62046939 294.2810269 C-121.62014865 290.41738294 -121.61983581 286.55373897 -121.61952633 282.69009501 C-121.61944725 281.7387014 -121.61936817 280.78730779 -121.6192867 279.80708408 C-121.61814712 265.41235389 -121.6194834 251.01762527 -121.62200588 236.6228953 C-121.62485842 220.26263098 -121.62416471 203.90237116 -121.61872514 187.5421074 C-121.61577817 178.37522445 -121.61561248 169.20835122 -121.61937131 160.04146851 C-121.6216019 153.92984019 -121.62023967 147.81821971 -121.61586654 141.70659255 C-121.61347175 138.21674155 -121.61270727 134.72690996 -121.61627252 131.23705953 C-121.61927281 127.49066753 -121.61623589 123.74433012 -121.6115517 119.99794108 C-121.61389287 118.89706427 -121.61623403 117.79618747 -121.61864614 116.66195077 C-121.61614263 115.67376866 -121.61363911 114.68558656 -121.61105973 113.66745955 C-121.61099197 112.80932191 -121.61092421 111.95118428 -121.61085439 111.06704247 C-121.48571056 109.13293558 -121.48571056 109.13293558 -120.48571056 108.13293558 C-120.27871493 106.63796716 -120.11891797 105.13627638 -119.98571056 103.63293558 C-119.59682167 99.24404669 -119.59682167 99.24404669 -118.48571056 98.13293558 C-118.25495974 96.78546474 -118.07417993 95.42915993 -117.92321056 94.07043558 C-117.77883556 92.77106058 -117.63446056 91.47168558 -117.48571056 90.13293558 C-116.82571056 90.13293558 -116.16571056 90.13293558 -115.48571056 90.13293558 C-115.57852306 88.58606058 -115.57852306 88.58606058 -115.67321056 87.00793558 C-115.47119685 82.8329855 -114.45373597 80.75410234 -112.48571056 77.13293558 C-111.78663643 74.39720974 -111.78663643 74.39720974 -111.48571056 72.13293558 C-110.82571056 72.13293558 -110.16571056 72.13293558 -109.48571056 72.13293558 C-109.34133556 71.36981058 -109.19696056 70.60668558 -109.04821056 69.82043558 C-108.48571056 67.13293558 -108.48571056 67.13293558 -107.48571056 64.13293558 C-106.82571056 64.13293558 -106.16571056 64.13293558 -105.48571056 64.13293558 C-105.48571056 62.81293558 -105.48571056 61.49293558 -105.48571056 60.13293558 C-104.82571056 60.13293558 -104.16571056 60.13293558 -103.48571056 60.13293558 C-103.48571056 59.47293558 -103.48571056 58.81293558 -103.48571056 58.13293558 C-102.82571056 58.13293558 -102.16571056 58.13293558 -101.48571056 58.13293558 C-101.48571056 56.81293558 -101.48571056 55.49293558 -101.48571056 54.13293558 C-100.82571056 54.13293558 -100.16571056 54.13293558 -99.48571056 54.13293558 C-99.48571056 53.47293558 -99.48571056 52.81293558 -99.48571056 52.13293558 C-98.82571056 52.13293558 -98.16571056 52.13293558 -97.48571056 52.13293558 C-97.48571056 50.81293558 -97.48571056 49.49293558 -97.48571056 48.13293558 C-96.82571056 48.13293558 -96.16571056 48.13293558 -95.48571056 48.13293558 C-95.48571056 47.47293558 -95.48571056 46.81293558 -95.48571056 46.13293558 C-94.82571056 46.13293558 -94.16571056 46.13293558 -93.48571056 46.13293558 C-93.34133556 45.51418558 -93.19696056 44.89543558 -93.04821056 44.25793558 C-92.48571056 42.13293558 -92.48571056 42.13293558 -91.48571056 40.13293558 C-90.82571056 40.13293558 -90.16571056 40.13293558 -89.48571056 40.13293558 C-89.48571056 39.47293558 -89.48571056 38.81293558 -89.48571056 38.13293558 C-88.82571056 38.13293558 -88.16571056 38.13293558 -87.48571056 38.13293558 C-87.48571056 37.47293558 -87.48571056 36.81293558 -87.48571056 36.13293558 C-86.82571056 36.13293558 -86.16571056 36.13293558 -85.48571056 36.13293558 C-85.48571056 35.47293558 -85.48571056 34.81293558 -85.48571056 34.13293558 C-84.82571056 34.13293558 -84.16571056 34.13293558 -83.48571056 34.13293558 C-83.48571056 33.47293558 -83.48571056 32.81293558 -83.48571056 32.13293558 C-82.82571056 32.13293558 -82.16571056 32.13293558 -81.48571056 32.13293558 C-81.48571056 31.47293558 -81.48571056 30.81293558 -81.48571056 30.13293558 C-80.82571056 30.13293558 -80.16571056 30.13293558 -79.48571056 30.13293558 C-79.48571056 29.47293558 -79.48571056 28.81293558 -79.48571056 28.13293558 C-78.16571056 28.13293558 -76.84571056 28.13293558 -75.48571056 28.13293558 C-75.48571056 27.47293558 -75.48571056 26.81293558 -75.48571056 26.13293558 C-74.82571056 26.13293558 -74.16571056 26.13293558 -73.48571056 26.13293558 C-73.48571056 25.47293558 -73.48571056 24.81293558 -73.48571056 24.13293558 C-70.48571056 22.13293558 -70.48571056 22.13293558 -67.48571056 22.13293558 C-67.48571056 21.47293558 -67.48571056 20.81293558 -67.48571056 20.13293558 C-64.48571056 18.13293558 -64.48571056 18.13293558 -61.48571056 18.13293558 C-61.48571056 17.47293558 -61.48571056 16.81293558 -61.48571056 16.13293558 C-60.16571056 16.13293558 -58.84571056 16.13293558 -57.48571056 16.13293558 C-57.48571056 15.47293558 -57.48571056 14.81293558 -57.48571056 14.13293558 C-56.16571056 14.13293558 -54.84571056 14.13293558 -53.48571056 14.13293558 C-53.48571056 13.47293558 -53.48571056 12.81293558 -53.48571056 12.13293558 C-52.16571056 12.13293558 -50.84571056 12.13293558 -49.48571056 12.13293558 C-49.48571056 11.47293558 -49.48571056 10.81293558 -49.48571056 10.13293558 C-47.50571056 10.13293558 -45.52571056 10.13293558 -43.48571056 10.13293558 C-43.48571056 9.47293558 -43.48571056 8.81293558 -43.48571056 8.13293558 C-42.16571056 8.13293558 -40.84571056 8.13293558 -39.48571056 8.13293558 C-39.48571056 7.47293558 -39.48571056 6.81293558 -39.48571056 6.13293558 C-37.50571056 6.13293558 -35.52571056 6.13293558 -33.48571056 6.13293558 C-33.48571056 5.47293558 -33.48571056 4.81293558 -33.48571056 4.13293558 C-31.43492931 3.905071 -29.38414806 3.67720642 -27.33336681 3.44934183 C-25.47430827 3.31406944 -25.47430827 3.31406944 -24.48571056 2.13293558 C-20.8461786 1.86222659 -17.21327532 1.68648041 -13.56774181 1.52746683 C-8.65935035 1.2857973 -4.95150975 0.01459852 0 0 Z " fill="#3F0841" transform="translate(242.48571056127548,42.86706441640854)"/>
<path d="M0 0 C1.84504795 -0.00480219 3.69008852 -0.01444349 5.53508931 -0.02848083 C10.58490708 -0.05299695 15.6321428 -0.00919928 20.68163168 0.04607785 C26.13411038 0.09368859 31.5864496 0.07749837 37.03907776 0.06915283 C46.47923328 0.0633916 55.91855094 0.09783237 65.35849571 0.15976906 C79.00683225 0.24925913 92.65476464 0.27782424 106.30336276 0.29163697 C128.44834054 0.31569755 150.59289222 0.38876789 172.73762512 0.4929657 C194.24606513 0.59405248 215.75438565 0.67194349 237.26301575 0.71855164 C238.25812789 0.72072182 238.25812789 0.72072182 239.2733433 0.72293584 C246.59688808 0.73887925 253.9204341 0.75418935 261.24398077 0.76924002 C316.42414343 0.88322949 371.60348034 1.08599073 426.78327942 1.32279968 C426.78327942 51.15279968 426.78327942 100.98279968 426.78327942 152.32279968 C395.76905377 153.47147471 395.76905377 153.47147471 384.16018677 153.4430542 C382.79219915 153.44349335 381.42421162 153.44437448 380.05622452 153.44564337 C376.40030247 153.44782105 372.74441115 153.4439629 369.08849299 153.4388653 C365.10733538 153.43446101 361.12617889 153.43601414 357.14501953 153.43676758 C350.28157467 153.43728662 343.41813947 153.43420545 336.55469704 153.42852974 C326.63186515 153.42032951 316.70903784 153.41779089 306.78620293 153.41654175 C290.67886186 153.41436446 274.57152592 153.40774064 258.46418762 153.39823914 C242.83690923 153.38903052 227.20963225 153.38196665 211.58235168 153.37773132 C210.61568466 153.3774686 209.64901764 153.37720588 208.65305767 153.37693519 C203.80255758 153.37562996 198.95205748 153.37436629 194.10155737 153.37312329 C153.99546017 153.36279197 113.88937246 153.3443762 73.78327942 153.32279968 C73.78327942 190.61279968 73.78327942 227.90279968 73.78327942 266.32279968 C155.95327942 266.32279968 238.12327942 266.32279968 322.78327942 266.32279968 C322.78327942 313.18279968 322.78327942 360.04279968 322.78327942 408.32279968 C240.28327942 408.32279968 157.78327942 408.32279968 72.78327942 408.32279968 C72.78327942 445.94279968 72.78327942 483.56279968 72.78327942 522.32279968 C93.26777161 522.30539734 93.26777161 522.30539734 114.16609192 522.28764343 C123.10521973 522.28179797 132.04434619 522.27616478 140.98347473 522.27201843 C142.12486987 522.2714872 143.266265 522.27095596 144.44224787 522.27040863 C152.93092489 522.26655417 161.41960205 522.26328527 169.90827942 522.26029968 C171.10769857 522.25986538 172.30711773 522.25943108 173.54288292 522.25898361 C278.27711304 522.22208483 278.27711304 522.22208483 330.47859192 522.54545593 C331.67575718 522.55281206 331.67575718 522.55281206 332.8971076 522.5603168 C364.19295632 522.75414384 395.48803688 523.0518452 426.78327942 523.32279968 C426.78327942 572.16279968 426.78327942 621.00279968 426.78327942 671.32279968 C370.10993078 671.34482454 313.43658616 671.3632966 256.76323447 671.37386501 C250.08005609 671.37511579 243.39687771 671.37640895 236.71369934 671.37773132 C236.0486251 671.37786208 235.38355086 671.37799284 234.69832286 671.37812756 C213.12200604 671.3823927 191.54569183 671.38990683 169.9693766 671.3990969 C147.17859569 671.40878668 124.38781593 671.4147933 101.59703296 671.41688818 C87.93592694 671.41826373 74.27482842 671.42261608 60.6137247 671.43071615 C51.25955686 671.43598167 41.90539292 671.43760442 32.5512237 671.43630106 C27.1456584 671.43565737 21.74010623 671.43667861 16.33454323 671.44200516 C11.39447156 671.44683777 6.45442198 671.44713925 1.51434933 671.44369858 C-0.28108099 671.44327275 -2.07651263 671.44456964 -3.87194031 671.44768286 C-6.2959689 671.45164461 -8.71991574 671.44956449 -11.14394283 671.44584751 C-11.85524954 671.44847452 -12.56655625 671.45110154 -13.2994177 671.45380816 C-18.10257478 671.43694548 -18.10257478 671.43694548 -19.21672058 670.32279968 C-19.31048111 668.51224943 -19.33416168 666.69802767 -19.33024597 664.88505554 C-19.33012512 663.7076178 -19.33000427 662.53018005 -19.32987976 661.31706238 C-19.32476379 660.06985413 -19.31964783 658.82264587 -19.31437683 657.53764343 C-19.31336975 656.39847473 -19.31236267 655.25930603 -19.31132507 654.08561707 C-19.30607396 649.8105011 -19.29211285 645.53539943 -19.27922058 641.26029968 C-19.25859558 631.71092468 -19.23797058 622.16154968 -19.21672058 612.32279968 C-38.35672058 612.32279968 -57.49672058 612.32279968 -77.21672058 612.32279968 C-77.89409577 560.16706028 -78.53929212 508.01150261 -78.91044617 455.85258484 C-78.91596845 455.07852226 -78.92149073 454.30445968 -78.92718036 453.50694066 C-79.04694433 436.67755529 -79.15774473 419.84812204 -79.25933376 403.01861739 C-79.30921977 394.76339282 -79.36108295 386.50818121 -79.41398621 378.25297546 C-79.41921657 377.43155782 -79.42444693 376.61014017 -79.42983579 375.76383108 C-79.59977701 349.22008023 -79.89982491 322.67977369 -80.26860941 296.13810284 C-80.6474336 268.8237414 -80.89248238 241.51127938 -80.97332018 214.19433577 C-80.98484348 210.32106545 -80.99786887 206.44780152 -81.0118103 202.57453918 C-81.01585568 201.43126124 -81.01585568 201.43126124 -81.01998279 200.26488677 C-81.06694574 188.07803329 -81.25158372 175.89711729 -81.49000194 163.71266998 C-81.72769443 151.41090983 -81.8149188 139.11492817 -81.75677568 126.81096023 C-81.72933084 120.16194852 -81.76743267 113.5264932 -81.98493958 106.87962151 C-82.73681661 82.73093358 -82.67213901 62.98891088 -65.67340609 44.4035269 C-57.50146706 35.96479757 -48.63565629 28.38252992 -39.43437211 21.0986184 C-33.80004392 16.58684306 -28.95025707 12.04990907 -24.35526562 6.46797466 C-17.45048909 -0.90683034 -9.51711687 -0.1847301 0 0 Z " fill="#FE1B95" transform="translate(357.2167205810547,152.6772003173828)"/>
<path d="M0 0 C146.85 0 293.7 0 445 0 C445 49.83 445 99.66 445 151 C399.86019669 151.11017563 354.72051993 151.20251618 309.58062069 151.25532665 C304.25451187 151.26158037 298.92840332 151.26805196 293.60229492 151.2746582 C292.54193823 151.27596976 291.48158154 151.27728131 290.38909283 151.2786326 C273.20763227 151.30040418 256.02625515 151.33983535 238.84484414 151.38576398 C221.22228182 151.43247988 203.59976327 151.46028509 185.97714156 151.47044247 C175.09822519 151.47731174 164.21954463 151.49902718 153.34070083 151.53958233 C145.88618454 151.56596063 138.4317906 151.57401216 130.977231 151.56750689 C126.67275832 151.56429632 122.36869839 151.56930475 118.06429863 151.59602737 C114.12550019 151.62030232 110.1873933 151.62162569 106.24856349 151.60449447 C104.82182137 151.60237625 103.39503665 151.60876825 101.96837876 151.62441591 C91.29216171 151.73472786 91.29216171 151.73472786 88.11590666 149.92869765 C86.77932358 148.60826683 86.77932358 148.60826683 85 146 C83.23861514 144.38662713 81.46909513 142.78210718 79.69311523 141.18481445 C71.8515105 134.05549236 64.39647951 126.54116849 56.91015625 119.04296875 C55.39243367 117.52592155 53.87456283 116.00902268 52.35655212 114.49226379 C49.1992118 111.33638673 46.0436593 108.17873611 42.8894043 105.01977539 C38.85584205 100.98048713 34.81776606 96.94574565 30.77835941 92.91230297 C27.65296898 89.79053029 24.52996923 86.66637473 21.40768242 83.54149818 C19.91932898 82.05248037 18.43023981 80.56419755 16.94038582 79.07668114 C14.86154986 77.00039493 12.78596308 74.92091293 10.71118164 72.84057617 C10.1028096 72.23422836 9.49443756 71.62788055 8.86763 71.00315857 C-1.56555771 60.51836703 -1.56555771 60.51836703 -1.59213257 54.09082031 C-1.5694632 53.35959961 -1.54679382 52.62837891 -1.5234375 51.875 C-1.51873444 51.0922168 -1.51403137 50.30943359 -1.50918579 49.50292969 C-1.48795864 47.00103925 -1.43169378 44.50131028 -1.375 42 C-1.35845859 40.38283367 -1.34411945 38.76564325 -1.33203125 37.1484375 C-1.18362816 24.74193917 -0.56379446 12.40347817 0 0 Z " fill="#FE48D6" transform="translate(339,154)"/>
<path d="M0 0 C32.54168207 0.14243613 65.08334723 0.2885186 97.625 0.4375 C98.83036769 0.44301424 100.03573539 0.44852847 101.27762938 0.4542098 C206.5306041 0.93605563 206.5306041 0.93605563 258.76171875 1.2890625 C259.56030878 1.29444644 260.35889882 1.29983039 261.18168855 1.30537748 C292.45460503 1.51672367 323.7272724 1.76282872 355 2 C355 50.84 355 99.68 355 150 C298.32665136 150.02202486 241.65330674 150.04049691 184.97995505 150.05106533 C178.29677667 150.05231611 171.61359829 150.05360927 164.93041992 150.05493164 C164.26534568 150.0550624 163.60027144 150.05519316 162.91504344 150.05532788 C141.33872662 150.05959302 119.76241241 150.06710715 98.18609718 150.07629722 C75.39531627 150.085987 52.60453651 150.09199362 29.81375355 150.09408849 C16.15264753 150.09546405 2.491549 150.0998164 -11.16955472 150.10791647 C-20.52372256 150.11318199 -29.8778865 150.11480474 -39.23205572 150.11350138 C-44.63762102 150.11285769 -50.04317319 150.11387893 -55.44873619 150.11920547 C-60.38880786 150.12403809 -65.32885744 150.12433956 -70.26893009 150.12089889 C-72.06436041 150.12047306 -73.85979205 150.12176995 -75.65521973 150.12488318 C-78.07924832 150.12884492 -80.50319516 150.1267648 -82.92722225 150.12304783 C-83.99418231 150.12698835 -83.99418231 150.12698835 -85.08269712 150.13100848 C-89.8858542 150.1141458 -89.8858542 150.1141458 -91 149 C-91.13568866 147.19716878 -91.20183571 145.38906021 -91.24047852 143.58154297 C-91.26622452 142.42298798 -91.29197052 141.26443298 -91.3184967 140.07077026 C-91.40248583 134.74778203 -91.46861779 129.42498215 -91.51489258 124.1015625 C-91.54158382 121.29379024 -91.590222 118.48772844 -91.65844727 115.68066406 C-91.75644285 111.63841907 -91.78851776 107.59803271 -91.81640625 103.5546875 C-91.85455948 102.30340057 -91.89271271 101.05211365 -91.93202209 99.76290894 C-91.9129588 91.20681826 -91.9129588 91.20681826 -89.25802612 87.69732666 C-87.25368668 85.93699102 -85.2222796 84.46871097 -83 83 C-80.4240271 80.48393345 -77.9222798 77.91848857 -75.4375 75.3125 C-73.30387276 73.28828954 -71.69176935 72.09664677 -69 71 C-69 70.34 -69 69.68 -69 69 C-67.6206529 67.81311994 -66.23715997 66.6289022 -64.80078125 65.51171875 C-62.38751739 63.48583347 -60.21773724 61.23460295 -58 59 C-56.56814834 57.56246764 -55.13607804 56.12515304 -53.70385742 54.68798828 C-52.48184883 53.46113815 -52.48184883 53.46113815 -51.2351532 52.20950317 C-48.01672055 48.979436 -44.79641027 45.75124498 -41.57548046 42.52366829 C-39.14004843 40.08302395 -36.70556082 37.64145274 -34.27319336 35.19775391 C-31.44927881 32.3607782 -28.62121949 29.52796542 -25.79296875 26.6953125 C-24.93124557 25.82842804 -24.0695224 24.96154358 -23.1816864 24.06838989 C-18.79303079 19.67933206 -14.34252139 15.43499136 -9.62811279 11.39639282 C-7.70468197 9.7467129 -5.86474217 8.03103932 -4.0625 6.25 C-3.49660156 5.69828125 -2.93070312 5.1465625 -2.34765625 4.578125 C-0.7671139 2.92733264 -0.7671139 2.92733264 0 0 Z " fill="#E9077D" transform="translate(429,674)"/>
<path d="M0 0 C82.17 0 164.34 0 249 0 C249 46.86 249 93.72 249 142 C166.83 142 84.66 142 0 142 C0 95.14 0 48.28 0 0 Z " fill="#FE47D6" transform="translate(431,419)"/>
<path d="M0 0 C1.32 0 2.64 0 4 0 C4 0.66 4 1.32 4 2 C4.66 2 5.32 2 6 2 C6 2.66 6 3.32 6 4 C6.928125 4.2165625 6.928125 4.2165625 7.875 4.4375 C10 5 10 5 12 6 C12 6.66 12 7.32 12 8 C12.66 8 13.32 8 14 8 C14 8.66 14 9.32 14 10 C14.66 10 15.32 10 16 10 C16 10.66 16 11.32 16 12 C16.66 12 17.32 12 18 12 C18 12.66 18 13.32 18 14 C18.66 14 19.32 14 20 14 C20 14.66 20 15.32 20 16 C20.66 16 21.32 16 22 16 C22 16.66 22 17.32 22 18 C22.66 18 23.32 18 24 18 C24 18.66 24 19.32 24 20 C24.66 20 25.32 20 26 20 C26 20.66 26 21.32 26 22 C26.66 22 27.32 22 28 22 C28 22.66 28 23.32 28 24 C28.66 24 29.32 24 30 24 C30 24.66 30 25.32 30 26 C30.66 26 31.32 26 32 26 C32 26.66 32 27.32 32 28 C32.66 28 33.32 28 34 28 C34 28.66 34 29.32 34 30 C34.66 30 35.32 30 36 30 C36.66 31.98 37.32 33.96 38 36 C38.66 36 39.32 36 40 36 C40 37.32 40 38.64 40 40 C40.66 40 41.32 40 42 40 C48 50.2 48 50.2 48 56 C48.66 56 49.32 56 50 56 C50.20496094 56.71027344 50.40992188 57.42054687 50.62109375 58.15234375 C51.02521484 59.53099609 51.02521484 59.53099609 51.4375 60.9375 C51.83775391 62.31228516 51.83775391 62.31228516 52.24609375 63.71484375 C52.79026051 65.9402493 52.79026051 65.9402493 54 67 C54.33333333 69.33333333 54.66666667 71.66666667 55 74 C55.33 74.33 55.66 74.66 56 75 C56.32097751 77.31817089 56.51220956 79.63779357 56.71875 81.96875 C56.79065837 83.99180593 56.79065837 83.99180593 58 85 C58.09772268 86.54317903 58.12522985 88.09084633 58.12534916 89.63711643 C58.12910444 91.1537916 58.12910444 91.1537916 58.13293558 92.70110667 C58.13059442 93.827653 58.12825325 94.95419933 58.12584114 96.11488342 C58.12729458 97.30435274 58.12874802 98.49382207 58.13024551 99.71933591 C58.13328722 103.05066595 58.13179339 106.38194037 58.12846755 109.71326666 C58.12594675 113.32621865 58.12918441 116.939166 58.13171089 120.55211735 C58.13533558 126.89409335 58.13520507 133.23606086 58.13266373 139.57803726 C58.12889498 149.00848177 58.1308078 158.43891906 58.13387203 167.86936352 C58.13914938 184.70811442 58.13867678 201.54686155 58.13579312 218.38561282 C58.13328191 233.12109946 58.13261883 247.85658472 58.13381577 262.59207153 C58.13393034 264.05573294 58.13393034 264.05573294 58.13404724 265.54896326 C58.13435855 269.50951161 58.13467695 273.47005996 58.135007 277.43060831 C58.13806902 314.61690716 58.13528775 351.8032036 58.1299101 388.98950209 C58.12516416 422.05908342 58.12558878 455.12866089 58.13037109 488.19824219 C58.13572063 525.31462253 58.1378519 562.43100073 58.13475883 599.5473814 C58.13443809 603.50089709 58.13412525 607.45441278 58.13381577 611.40792847 C58.13373669 612.38145248 58.13365761 613.3549765 58.13357614 614.35800124 C58.13243656 629.08763658 58.13377285 643.81727039 58.13629532 658.54690552 C58.13914784 675.28778694 58.13845418 692.02866397 58.13301457 708.76954484 C58.13006759 718.14971907 58.12990195 727.52988381 58.13366075 736.9100578 C58.13589131 743.16386008 58.13452916 749.4176547 58.13015598 755.67145584 C58.12776115 759.24251002 58.12699679 762.81354523 58.13056196 766.38459885 C58.13435042 770.21811508 58.1305254 774.05160079 58.12584114 777.88511658 C58.12818231 779.01166291 58.13052347 780.13820924 58.13293558 781.29889333 C58.13043207 782.31001011 58.12792855 783.32112689 58.12534916 784.36288357 C58.12524753 785.6800383 58.12524753 785.6800383 58.12514383 787.02380222 C58 789 58 789 57 790 C56.76572222 792.01594582 56.58663876 794.038474 56.4375 796.0625 C56.35371094 797.16722656 56.26992188 798.27195312 56.18359375 799.41015625 C56.12300781 800.26480469 56.06242188 801.11945312 56 802 C55.34 802 54.68 802 54 802 C54.0928125 803.7325 54.0928125 803.7325 54.1875 805.5 C54.17456864 809.21130045 53.44171317 812.11851847 52 815.5703125 C50.65470691 818.83895431 49.48975581 822.16827001 48.3125 825.5 C47.87550781 826.7271875 47.43851563 827.954375 46.98828125 829.21875 C46.66214844 830.1365625 46.33601562 831.054375 46 832 C45.34 832 44.68 832 44 832 C43.855625 832.61875 43.71125 833.2375 43.5625 833.875 C43 836 43 836 42 838 C41.34 838 40.68 838 40 838 C40 839.32 40 840.64 40 842 C39.34 842 38.68 842 38 842 C38 842.66 38 843.32 38 844 C37.34 844 36.68 844 36 844 C36 845.32 36 846.64 36 848 C35.34 848 34.68 848 34 848 C34 848.66 34 849.32 34 850 C33.34 850 32.68 850 32 850 C32 850.66 32 851.32 32 852 C31.34 852 30.68 852 30 852 C30 853.32 30 854.64 30 856 C29.34 856 28.68 856 28 856 C28 856.66 28 857.32 28 858 C27.34 858 26.68 858 26 858 C26 858.66 26 859.32 26 860 C25.34 860 24.68 860 24 860 C24 860.66 24 861.32 24 862 C23.34 862 22.68 862 22 862 C22 862.66 22 863.32 22 864 C21.34 864 20.68 864 20 864 C20 864.66 20 865.32 20 866 C19.34 866 18.68 866 18 866 C18 866.66 18 867.32 18 868 C17.34 868 16.68 868 16 868 C16 868.66 16 869.32 16 870 C14.68 870 13.36 870 12 870 C12 870.66 12 871.32 12 872 C11.34 872 10.68 872 10 872 C10 872.66 10 873.32 10 874 C9.34 874 8.68 874 8 874 C8 874.66 8 875.32 8 876 C6.68 876 5.36 876 4 876 C4 876.66 4 877.32 4 878 C3.34 878 2.68 878 2 878 C2 878.66 2 879.32 2 880 C0.68 880 -0.64 880 -2 880 C-2 880.66 -2 881.32 -2 882 C-2.66 882 -3.32 882 -4 882 C-4 882.66 -4 883.32 -4 884 C-5.32 884 -6.64 884 -8 884 C-8 884.66 -8 885.32 -8 886 C-9.32 886 -10.64 886 -12 886 C-12 886.66 -12 887.32 -12 888 C-15.50776784 889.60355101 -18.14354879 890.22036864 -22 890 C-22 890.66 -22 891.32 -22 892 C-23.98 892 -25.96 892 -28 892 C-28 892.66 -28 893.32 -28 894 C-29.134375 894.144375 -30.26875 894.28875 -31.4375 894.4375 C-34.80777201 894.61171478 -34.80777201 894.61171478 -36 896 C-38.57897694 896.32237212 -41.15931821 896.51267304 -43.75 896.71875 C-45.96665352 896.76200665 -45.96665352 896.76200665 -47 898 C-48.34875623 898.0967899 -49.70254776 898.12447429 -51.05477244 898.1241985 C-51.93570447 898.12644579 -52.81663651 898.12869308 -53.72426346 898.13100848 C-55.19551857 898.12706796 -55.19551857 898.12706796 -56.69649601 898.12304783 C-58.25068638 898.1247786 -58.25068638 898.1247786 -59.83627453 898.12654433 C-63.35490032 898.12921945 -66.87348157 898.12468151 -70.3921051 898.12025452 C-72.92147089 898.12069004 -75.45083664 898.12156459 -77.98020214 898.12284368 C-83.50358429 898.1246214 -89.02695231 898.12326382 -94.55033302 898.11920547 C-102.76348468 898.11318749 -110.97662952 898.11286808 -119.18978298 898.11374746 C-133.00346763 898.11506355 -146.8171475 898.11171169 -160.63083076 898.10573006 C-174.31470323 898.09981978 -187.9985737 898.09596548 -201.68244743 898.09487724 C-202.53220927 898.0948085 -203.38197111 898.09473976 -204.2574833 898.09466894 C-208.57272187 898.09433062 -212.88796045 898.09402923 -217.20319902 898.09374207 C-247.79456568 898.09163979 -278.38592973 898.08489724 -308.97729492 898.07543945 C-338.7025552 898.06626002 -368.42781476 898.05917396 -398.15307617 898.05493164 C-399.06880092 898.05480011 -399.98452567 898.05466859 -400.92799965 898.05453308 C-410.12380418 898.05321459 -419.31960871 898.05193877 -428.51541325 898.05069422 C-447.24952826 898.04815778 -465.98364323 898.04533652 -484.71775818 898.04234314 C-485.5791856 898.04220585 -486.44061302 898.04206856 -487.3281443 898.04192711 C-544.88543062 898.03272126 -602.44271547 898.01685471 -660 898 C-660 897.34 -660 896.68 -660 896 C-663.96 896 -667.92 896 -672 896 C-672 895.34 -672 894.68 -672 894 C-673.546875 894.0928125 -673.546875 894.0928125 -675.125 894.1875 C-679.29995008 893.98548629 -681.37883325 892.96802541 -685 891 C-687.73572585 890.30092586 -687.73572585 890.30092586 -690 890 C-690 889.34 -690 888.68 -690 888 C-691.32 888 -692.64 888 -694 888 C-694 887.34 -694 886.68 -694 886 C-694.763125 885.855625 -695.52625 885.71125 -696.3125 885.5625 C-699 885 -699 885 -702 884 C-702 883.34 -702 882.68 -702 882 C-703.32 882 -704.64 882 -706 882 C-706 881.34 -706 880.68 -706 880 C-706.66 880 -707.32 880 -708 880 C-708 879.34 -708 878.68 -708 878 C-709.32 878 -710.64 878 -712 878 C-712 877.34 -712 876.68 -712 876 C-712.66 876 -713.32 876 -714 876 C-714 875.34 -714 874.68 -714 874 C-714.66 874 -715.32 874 -716 874 C-716 873.34 -716 872.68 -716 872 C-716.66 872 -717.32 872 -718 872 C-718 871.34 -718 870.68 -718 870 C-715.29551612 871.18997291 -713.04071814 872.67788644 -710.6875 874.4375 C-707.28818213 876.92444684 -703.92025966 878.47989932 -700 880 C-700 880.66 -700 881.32 -700 882 C-699.4225 882.144375 -698.845 882.28875 -698.25 882.4375 C-696.16666667 882.95833333 -694.08333333 883.47916667 -692 884 C-692 884.66 -692 885.32 -692 886 C-691.28714844 886.10957031 -690.57429688 886.21914063 -689.83984375 886.33203125 C-684.10041611 887.2821653 -679.3434676 888.65637386 -674 891 C-662.26896347 895.43468067 -649.61344715 894.41742117 -637.28991699 894.38095093 C-634.75135837 894.38440948 -632.21280125 894.38917536 -629.67424726 894.39513266 C-624.16451004 894.40503539 -618.65489355 894.4056591 -613.14515495 894.39799118 C-604.95185557 894.38661966 -596.75863034 894.39245742 -588.56533141 894.4016161 C-573.93010909 894.41739732 -559.2949261 894.41605053 -544.65970005 894.40737936 C-531.85206287 894.39982841 -519.0444401 894.3978646 -506.23680115 894.4014473 C-505.38676425 894.40167645 -504.53672735 894.40190561 -503.66093176 894.40214171 C-500.21022982 894.40307574 -496.75952789 894.40403095 -493.30882597 894.405021 C-460.94812669 894.41419503 -428.58745245 894.40588232 -396.22675704 894.38973031 C-367.48530509 894.37549382 -338.74389301 894.37676772 -310.00244141 894.39111328 C-277.70038316 894.40718219 -245.39834703 894.41354437 -213.09628534 894.40427649 C-209.65192318 894.40331436 -206.20756102 894.40237584 -202.76319885 894.4014473 C-201.91512839 894.40121006 -201.06705792 894.40097283 -200.19328835 894.40072841 C-187.39467619 894.39731807 -174.59608003 894.40130296 -161.79747009 894.40888596 C-147.24277522 894.41746649 -132.68812578 894.41531334 -118.13343656 894.39904372 C-109.99080099 894.39024157 -101.84826384 894.38965012 -93.70563084 894.40098225 C-87.6233877 894.40851238 -81.54127188 894.40033188 -75.45903641 894.38605852 C-73.00024922 894.38270866 -70.54144885 894.38440938 -68.08267015 894.39168589 C-52.50070195 894.70519392 -52.50070195 894.70519392 -37.34222364 891.64285719 C-34.4998967 890.86273941 -31.93323807 890.899697 -29 891 C-29 890.34 -29 889.68 -29 889 C-25.37 888.01 -21.74 887.02 -18 886 C-18 885.34 -18 884.68 -18 884 C-16.906875 883.62875 -15.81375 883.2575 -14.6875 882.875 C-7.64534317 880.22794814 -1.00185769 876.57219564 5.0625 872.125 C8 870 8 870 10 870 C10 869.01 10 868.02 10 867 C11.50390625 865.640625 11.50390625 865.640625 13.5625 864.25 C20.12529802 859.5424099 25.01849073 854.58790234 28.95703125 847.50390625 C29.30121094 847.00761719 29.64539063 846.51132812 30 846 C30.66 846 31.32 846 32 846 C32.28875 845.2575 32.5775 844.515 32.875 843.75 C33.82302644 841.43260203 34.84845911 839.22082885 36 837 C36.66 837 37.32 837 38 837 C38 836.34 38 835.68 38 835 C38.66 835 39.32 835 40 835 C40.0825 834.360625 40.165 833.72125 40.25 833.0625 C41.29520372 828.79458483 43.14091826 824.96892333 45 821 C45.66 821 46.32 821 47 821 C47.03738281 820.31035156 47.07476563 819.62070312 47.11328125 818.91015625 C47.497723 813.41490065 48.23781678 808.59755373 50.13553618 803.42838864 C53.23898981 794.71039334 54.4372528 786.84923463 54.38476086 777.60499287 C54.38991076 776.39862038 54.39506067 775.1922479 54.40036663 773.94931868 C54.41159323 770.61705568 54.40952986 767.28529232 54.40173779 763.95305243 C54.39657256 760.32186728 54.40884601 756.69073304 54.41886932 753.05956382 C54.43403761 746.70113314 54.43816384 740.34277039 54.43499184 733.9843235 C54.43032558 724.52961828 54.44283148 715.07498982 54.45882157 705.62029975 C54.485237 689.71468469 54.49777723 673.80908704 54.50238609 657.90345192 C54.5069943 642.15684686 54.51778396 626.41026599 54.53681374 610.66367149 C54.53858393 609.19458494 54.53858393 609.19458494 54.54038988 607.69581987 C54.54641537 602.72190655 54.55255115 597.74799337 54.55872939 592.77408024 C54.60228165 557.55178579 54.63199778 522.32949193 54.65356445 487.10717773 C54.67454675 452.89102307 54.7018041 418.6748828 54.73754883 384.45874023 C54.73864831 383.40388949 54.73974778 382.34903875 54.74088058 381.26222283 C54.75192899 370.66889478 54.7631049 360.07556687 54.7743742 349.48223905 C54.79732779 327.90276685 54.81943052 306.3232938 54.84101868 284.74382019 C54.8420123 283.75164971 54.84300591 282.75947923 54.84402964 281.73724298 C54.91027457 215.4915071 54.95668576 149.24575435 55 83 C54.34 83 53.68 83 53 83 C52.93941406 82.36191406 52.87882813 81.72382813 52.81640625 81.06640625 C52.73261719 80.24011719 52.64882813 79.41382813 52.5625 78.5625 C52.48128906 77.73878906 52.40007813 76.91507812 52.31640625 76.06640625 C52.21069185 74.01337975 52.21069185 74.01337975 51 73 C50.95907063 70.66702567 50.95758277 68.33294775 51 66 C50.34 66 49.68 66 49 66 C48.76925781 65.26136719 48.53851562 64.52273437 48.30078125 63.76171875 C44.31701658 51.36953379 39.54258258 38.21034566 30 29 C28.90559879 27.75967863 27.82219406 26.50956778 26.75 25.25 C19.98844482 17.44827697 19.98844482 17.44827697 12 11 C12 10.34 12 9.68 12 9 C11.319375 8.79375 10.63875 8.5875 9.9375 8.375 C6.05852171 6.55930804 3.03879438 4.00376505 0 1 C0 0.67 0 0.34 0 0 Z " fill="#FDFEFD" transform="translate(885,63)"/>
<path d="M0 0 C5.62219846 4.66522851 11.16010796 9.51259405 16 15 C16 15.66 16 16.32 16 17 C16.59858961 17.25651882 17.19717923 17.51303763 17.81390792 17.77732974 C20.22378535 19.12516202 21.32641146 20.368117 22.97747326 22.56272411 C41.96107332 47.12621144 41.96107332 47.12621144 69.41397095 59.33828735 C82.27656639 60.91732335 95.2867868 60.44566968 108.20491242 59.9535048 C114.69137931 59.74694834 121.17793051 59.75646508 127.66716003 59.74064636 C138.51384822 59.6861608 149.35111424 59.50402628 160.1940918 59.21850586 C171.33916411 58.92539476 182.48117134 58.71323458 193.62963867 58.60522461 C194.32186186 58.59849084 195.01408506 58.59175706 195.72728471 58.58481923 C199.20151686 58.55150673 202.67576108 58.51973626 206.15001452 58.48873103 C234.77216664 58.23131956 263.3854686 57.70386636 292 57 C292 57.33 292 57.66 292 58 C261.96904044 58.02279437 231.93808117 58.04050025 201.90711487 58.05106533 C198.36467162 58.05231609 194.82222838 58.05361041 191.27978516 58.05493164 C190.57452469 58.05519395 189.86926423 58.05545626 189.14263223 58.05572652 C177.71116193 58.06008223 166.27969663 58.06796924 154.8482293 58.0771528 C143.12547132 58.08649208 131.40271596 58.09205619 119.67995441 58.09408849 C113.09253057 58.09539554 106.50511811 58.09848101 99.91769791 58.10573006 C93.72411302 58.11249083 87.53054425 58.11461684 81.33695602 58.11310768 C79.05763919 58.11338398 76.77832184 58.11538876 74.49900818 58.11920547 C71.39931253 58.1241436 68.29967862 58.12299782 65.19998169 58.12025452 C64.28754357 58.12316736 63.37510546 58.1260802 62.4350177 58.12908131 C56.22824242 58.11412121 56.22824242 58.11412121 54 57 C52.30970636 56.91455797 50.61600914 56.89285537 48.92358398 56.90234375 C47.86586288 56.90564697 46.80814178 56.9089502 45.71836853 56.91235352 C44.57251785 56.92065186 43.42666718 56.9289502 42.24609375 56.9375 C40.48931053 56.94317993 40.48931053 56.94317993 38.69703674 56.94897461 C34.94382122 56.96122934 31.19068104 56.97986414 27.4375 57 C22.49870009 57.02645954 17.55993741 57.04651896 12.62109375 57.0625 C11.47321884 57.07079834 10.32534393 57.07909668 9.14268494 57.08764648 C8.088116 57.09094971 7.03354706 57.09425293 5.94702148 57.09765625 C5.0137352 57.10289307 4.08044891 57.10812988 3.11888123 57.11352539 C1 57 1 57 0 56 C-0.12800501 54.39557977 -0.18835184 52.78569704 -0.22119141 51.17651367 C-0.24436432 50.14842087 -0.26753723 49.12032806 -0.29141235 48.06108093 C-0.3112619 46.94135391 -0.33111145 45.82162689 -0.3515625 44.66796875 C-0.37471527 43.52467606 -0.39786804 42.38138336 -0.42172241 41.20344543 C-0.46945369 38.7781737 -0.51467626 36.35285152 -0.55761719 33.92749023 C-0.62452549 30.21383725 -0.70234085 26.50052446 -0.78125 22.78710938 C-0.82618203 20.43490837 -0.87047386 18.08269503 -0.9140625 15.73046875 C-0.93796051 14.61681442 -0.96185852 13.5031601 -0.98648071 12.35575867 C-1.0033493 11.31820938 -1.0202179 10.2806601 -1.03759766 9.21166992 C-1.05456696 8.29979416 -1.07153625 7.3879184 -1.08901978 6.44841003 C-1.0051368 4.14128326 -0.65563572 2.20578982 0 0 Z " fill="#3E0632" transform="translate(282,767)"/>
<path d="M0 0 C0.20657458 19.34915256 -0.43736956 38.65957847 -1 58 C-19.81 57.67 -38.62 57.34 -58 57 C-51.2482645 49.12297525 -51.2482645 49.12297525 -48.41650391 46.28710938 C-47.78209381 45.64954712 -47.14768372 45.01198486 -46.49404907 44.35510254 C-45.8282785 43.6913562 -45.16250793 43.02760986 -44.4765625 42.34375 C-43.77155609 41.63778687 -43.06654968 40.93182373 -42.34017944 40.20446777 C-40.85724622 38.72085798 -39.37306518 37.23849448 -37.88769531 35.75732422 C-35.63492295 33.5098994 -33.38752763 31.25719771 -31.140625 29.00390625 C-29.69042458 27.55436687 -28.23991388 26.10513783 -26.7890625 24.65625 C-25.79647934 23.66063049 -25.79647934 23.66063049 -24.78384399 22.64489746 C-20.903915 18.78405679 -16.91788087 15.10591402 -12.76264954 11.54246521 C-10.23419037 9.32985276 -7.9088723 6.9674401 -5.5625 4.5625 C-1.10879285 0 -1.10879285 0 0 0 Z " fill="#D50290" transform="translate(339,155)"/>
<path d="M0 0 C18.81 0 37.62 0 57 0 C57 18.81 57 37.62 57 57 C49.12504113 50.25003525 49.12504113 50.25003525 46.43896484 47.55249023 C45.83498871 46.94843857 45.23101257 46.3443869 44.60873413 45.72203064 C43.98246124 45.09059647 43.35618835 44.45916229 42.7109375 43.80859375 C42.04462311 43.14086441 41.37830872 42.47313507 40.69180298 41.78517151 C38.58381785 39.67164124 36.47934852 37.55465046 34.375 35.4375 C32.95596291 34.01343891 31.53669406 32.58960874 30.1171875 31.16601562 C27.51077053 28.55147403 24.90568916 25.93561804 22.30224609 23.31811523 C18.3645575 19.36005825 14.41960265 15.40966036 10.44921875 11.484375 C9.19527432 10.23962179 7.9413687 8.99482949 6.6875 7.75 C6.04232422 7.11320313 5.39714844 6.47640625 4.73242188 5.8203125 C4.12333984 5.21445312 3.51425781 4.60859375 2.88671875 3.984375 C2.33201904 3.43491211 1.77731934 2.88544922 1.20581055 2.31933594 C0 1 0 1 0 0 Z " fill="#910050" transform="translate(281,765)"/>
<path d="M0 0 C0.495 1.485 0.495 1.485 1 3 C-1.32895969 5.35852656 -3.6639811 7.71096674 -6 10.0625 C-6.64839844 10.71927734 -7.29679687 11.37605469 -7.96484375 12.05273438 C-8.61582031 12.70693359 -9.26679688 13.36113281 -9.9375 14.03515625 C-10.52402344 14.6269165 -11.11054688 15.21867676 -11.71484375 15.82836914 C-13.69042085 17.70580058 -15.70715767 19.48777723 -17.76977539 21.26757812 C-21.94551774 24.90105037 -25.85816616 28.74644924 -29.74609375 32.68359375 C-30.44267593 33.38396255 -31.13925812 34.08433136 -31.85694885 34.80592346 C-34.05294027 37.01400797 -36.24561488 39.22533976 -38.4375 41.4375 C-41.35003424 44.37652616 -44.26580263 47.31228755 -47.18359375 50.24609375 C-47.85329697 50.92409531 -48.52300018 51.60209686 -49.21299744 52.30064392 C-49.82776443 52.91871414 -50.44253143 53.53678436 -51.07592773 54.17358398 C-51.61805405 54.72094711 -52.16018036 55.26831024 -52.71873474 55.83226013 C-54 57 -54 57 -55 57 C-55.02490465 50.93514294 -55.04295609 44.87031632 -55.05493164 38.80541992 C-55.05992942 36.74649537 -55.06672987 34.68757431 -55.07543945 32.62866211 C-55.0877062 29.65217217 -55.09327401 26.67572955 -55.09765625 23.69921875 C-55.10539818 22.34071053 -55.10539818 22.34071053 -55.11329651 20.95475769 C-55.11384015 14.62033214 -54.92310054 8.27574255 -54 2 C-52.38095497 0.38095497 -50.58288514 0.83435747 -48.34423828 0.79467773 C-46.85731979 0.7647599 -46.85731979 0.7647599 -45.34036255 0.73423767 C-43.72168777 0.70916893 -43.72168777 0.70916893 -42.0703125 0.68359375 C-40.96904022 0.66281265 -39.86776794 0.64203156 -38.73312378 0.62062073 C-35.19714861 0.55500757 -31.66109572 0.49621923 -28.125 0.4375 C-25.74608572 0.39432052 -23.36717928 0.35070643 -20.98828125 0.30664062 C-4.18895195 0 -4.18895195 0 0 0 Z " fill="#51094D" transform="translate(336,154)"/>
<path d="M0 0 C0.33 0 0.66 0 1 0 C1.33 224.73 1.66 449.46 2 681 C2.33 681 2.66 681 3 681 C2.99476318 681.7520874 2.98952637 682.5041748 2.98413086 683.27905273 C2.96342773 686.66519342 2.95036123 690.05132084 2.9375 693.4375 C2.92912109 694.62150391 2.92074219 695.80550781 2.91210938 697.02539062 C2.90888672 698.15009766 2.90566406 699.27480469 2.90234375 700.43359375 C2.89448853 701.99678345 2.89448853 701.99678345 2.88647461 703.59155273 C2.72694444 705.95128747 2.72694444 705.95128747 4 707 C4.23481693 709.18292774 4.41363323 711.37203174 4.5625 713.5625 C4.68818359 715.35880859 4.68818359 715.35880859 4.81640625 717.19140625 C4.87699219 718.11824219 4.93757813 719.04507813 5 720 C4.34 720 3.68 720 3 720 C2.90912109 719.04287109 2.90912109 719.04287109 2.81640625 718.06640625 C2.73261719 717.24011719 2.64882812 716.41382813 2.5625 715.5625 C2.48128906 714.73878906 2.40007812 713.91507813 2.31640625 713.06640625 C2.21069185 711.01337975 2.21069185 711.01337975 1 710 C0.85547282 708.52492882 0.77305075 707.0436396 0.71875 705.5625 C0.68136719 704.66789063 0.64398438 703.77328125 0.60546875 702.8515625 C0.53515625 700.95052083 0.46484375 699.04947917 0.39453125 697.1484375 C0.35714844 696.25382813 0.31976563 695.35921875 0.28125 694.4375 C0.25095703 693.61121094 0.22066406 692.78492188 0.18945312 691.93359375 C0.20598341 689.99438844 0.20598341 689.99438844 -1 689 C-1.09763333 687.49106993 -1.12522977 685.97756142 -1.12534916 684.46547604 C-1.12785268 683.47729393 -1.1303562 682.48911183 -1.13293558 681.47098482 C-1.13059442 680.37010801 -1.12825325 679.26923121 -1.12584114 678.13499451 C-1.12729458 676.97253916 -1.12874802 675.81008382 -1.13024551 674.61240256 C-1.13328713 671.35684253 -1.13179345 668.10131931 -1.12846755 664.84576066 C-1.12594669 661.31493695 -1.12918444 657.78411799 -1.13171089 654.25329494 C-1.13533554 648.05551698 -1.13520509 641.85774771 -1.13266373 635.65996933 C-1.12889494 626.44394484 -1.13080782 617.22792775 -1.13387203 608.01190332 C-1.13914935 591.55600398 -1.13867679 575.10010852 -1.13579312 558.64420882 C-1.1332819 544.24375232 -1.13261884 529.84329725 -1.13381577 515.44284058 C-1.13389215 514.48924786 -1.13396854 513.53565514 -1.13404724 512.55316567 C-1.13435855 508.68264847 -1.13467695 504.81213128 -1.135007 500.94161409 C-1.13806901 464.60071265 -1.13528776 428.25981369 -1.1299101 391.91891263 C-1.12516417 359.60121387 -1.12558878 327.28351904 -1.13037109 294.96582031 C-1.13572065 258.69324336 -1.1378519 222.4206686 -1.13475883 186.14809132 C-1.13443809 182.28444735 -1.13412525 178.42080339 -1.13381577 174.55715942 C-1.13373669 173.60576582 -1.13365761 172.65437221 -1.13357614 171.67414849 C-1.13243656 157.2794183 -1.13377284 142.88468969 -1.13629532 128.48995972 C-1.13914786 112.1296954 -1.13845415 95.76943557 -1.13301457 79.40917182 C-1.13006761 70.24228887 -1.12990192 61.07541564 -1.13366075 51.90853293 C-1.13589134 45.7969046 -1.13452911 39.68528412 -1.13015598 33.57365697 C-1.12776119 30.08380597 -1.12699671 26.59397438 -1.13056196 23.10412395 C-1.13356225 19.35773195 -1.13052532 15.61139454 -1.12584114 11.86500549 C-1.12818231 10.76412869 -1.13052347 9.66325189 -1.13293558 8.52901518 C-1.13043207 7.54083308 -1.12792855 6.55265098 -1.12534916 5.53452396 C-1.1252814 4.67638633 -1.12521365 3.81824869 -1.12514383 2.93410689 C-1 1 -1 1 0 0 Z " fill="#987B9A" transform="translate(122,151)"/>
<path d="M0 0 C116.82 0 233.64 0 354 0 C354 48.51 354 97.02 354 147 C353.34 147 352.68 147 352 147 C352 99.15 352 51.3 352 2 C325.8578125 2.0309375 325.8578125 2.0309375 299.1875 2.0625 C287.17706484 2.06897863 275.16667649 2.07401625 263.15625 2.06640625 C261.9666546 2.06569402 261.9666546 2.06569402 260.75302696 2.06496739 C207.56411044 2.03102852 154.3757233 1.75413689 101.1875 1.5 C99.93567916 1.49402628 98.68385833 1.48805257 97.39410353 1.48189783 C64.92937415 1.32686338 32.46467356 1.16630495 0 1 C0 0.67 0 0.34 0 0 Z " fill="#F50491" transform="translate(430,676)"/>
<path d="M0 0 C0.33 0 0.66 0 1 0 C1.03427418 62.89066814 1.0660738 125.78133738 1.08468628 188.67201233 C1.08496239 189.60260633 1.08523851 190.53320033 1.08552299 191.49199415 C1.09150861 211.71562689 1.097049 231.93925972 1.10213066 252.1628927 C1.10462536 262.08035622 1.10721847 271.99781972 1.10986328 281.9152832 C1.1101248 282.90219739 1.11038632 283.88911158 1.11065576 284.90593226 C1.11918058 316.90272405 1.13420479 348.89950879 1.15259444 380.89629631 C1.17145569 413.77330622 1.18376998 446.65031222 1.18782998 479.52732745 C1.1884063 484.16948441 1.18905758 488.81164135 1.18975449 493.45379829 C1.18988933 494.36745395 1.19002418 495.28110962 1.19016311 496.22245181 C1.19252783 510.93807883 1.20180742 525.65369378 1.21366407 540.36931588 C1.22543269 555.15845294 1.22993742 569.94757802 1.22700275 584.7367196 C1.22548 593.52644752 1.22955141 602.31613164 1.24159509 611.10585166 C1.24909022 616.97632219 1.24933056 622.846764 1.24366363 628.7172365 C1.24064195 632.06284442 1.24188624 635.40830205 1.24976636 638.75391208 C1.25776618 642.35917704 1.25348186 645.96422607 1.24609566 649.56948757 C1.25134968 650.60631679 1.25660371 651.643146 1.26201695 652.71139428 C1.23384861 658.77622498 0.52791124 664.12559588 -1 670 C-1.33 670 -1.66 670 -2 670 C-2 666.37 -2 662.74 -2 659 C-1.34 659 -0.68 659 0 659 C0 441.53 0 224.06 0 0 Z " fill="#50315B" transform="translate(939,192)"/>
<path d="M0 0 C2.49838015 3.74757022 2.50377176 6.66284001 2 11 C1.38584323 12.87479435 0.76033631 14.74989192 0 16.5703125 C-1.34529309 19.83895431 -2.51024419 23.16827001 -3.6875 26.5 C-4.12449219 27.7271875 -4.56148437 28.954375 -5.01171875 30.21875 C-5.33785156 31.1365625 -5.66398438 32.054375 -6 33 C-6.66 33 -7.32 33 -8 33 C-8.144375 33.61875 -8.28875 34.2375 -8.4375 34.875 C-9 37 -9 37 -10 39 C-10.66 39 -11.32 39 -12 39 C-12 40.32 -12 41.64 -12 43 C-12.66 43 -13.32 43 -14 43 C-14 43.66 -14 44.32 -14 45 C-14.66 45 -15.32 45 -16 45 C-16 46.32 -16 47.64 -16 49 C-16.66 49 -17.32 49 -18 49 C-18 49.66 -18 50.32 -18 51 C-18.66 51 -19.32 51 -20 51 C-20 51.66 -20 52.32 -20 53 C-20.66 53 -21.32 53 -22 53 C-22 54.32 -22 55.64 -22 57 C-22.66 57 -23.32 57 -24 57 C-24 57.66 -24 58.32 -24 59 C-24.66 59 -25.32 59 -26 59 C-26 59.66 -26 60.32 -26 61 C-26.66 61 -27.32 61 -28 61 C-28 61.66 -28 62.32 -28 63 C-28.66 63 -29.32 63 -30 63 C-30 63.66 -30 64.32 -30 65 C-30.66 65 -31.32 65 -32 65 C-32 65.66 -32 66.32 -32 67 C-32.66 67 -33.32 67 -34 67 C-34 67.66 -34 68.32 -34 69 C-34.66 69 -35.32 69 -36 69 C-36 69.66 -36 70.32 -36 71 C-37.32 71 -38.64 71 -40 71 C-40 71.66 -40 72.32 -40 73 C-40.66 73 -41.32 73 -42 73 C-42 73.66 -42 74.32 -42 75 C-42.66 75 -43.32 75 -44 75 C-44 75.66 -44 76.32 -44 77 C-45.32 77 -46.64 77 -48 77 C-48 77.66 -48 78.32 -48 79 C-48.66 79 -49.32 79 -50 79 C-50 79.66 -50 80.32 -50 81 C-51.32 81 -52.64 81 -54 81 C-54 81.66 -54 82.32 -54 83 C-54.66 83 -55.32 83 -56 83 C-56 83.66 -56 84.32 -56 85 C-57.32 85 -58.64 85 -60 85 C-60 85.66 -60 86.32 -60 87 C-61.32 87 -62.64 87 -64 87 C-64 87.66 -64 88.32 -64 89 C-67.50776784 90.60355101 -70.14354879 91.22036864 -74 91 C-74 91.66 -74 92.32 -74 93 C-75.98 93 -77.96 93 -80 93 C-80 93.66 -80 94.32 -80 95 C-81.7015625 95.2165625 -81.7015625 95.2165625 -83.4375 95.4375 C-86.80777201 95.61171478 -86.80777201 95.61171478 -88 97 C-89.99609375 97.16796875 -89.99609375 97.16796875 -92.4375 97.1875 C-93.24058594 97.20167969 -94.04367187 97.21585938 -94.87109375 97.23046875 C-97 97 -97 97 -99 95 C-97.12743583 94.49095343 -95.25180659 93.99317545 -93.375 93.5 C-92.33085938 93.2215625 -91.28671875 92.943125 -90.2109375 92.65625 C-87.04312582 92.00881404 -84.22258533 91.8838708 -81 92 C-81 91.34 -81 90.68 -81 90 C-77.37 89.01 -73.74 88.02 -70 87 C-70 86.34 -70 85.68 -70 85 C-68.906875 84.62875 -67.81375 84.2575 -66.6875 83.875 C-59.64534317 81.22794814 -53.00185769 77.57219564 -46.9375 73.125 C-44 71 -44 71 -42 71 C-42 70.01 -42 69.02 -42 68 C-40.49609375 66.640625 -40.49609375 66.640625 -38.4375 65.25 C-31.87470198 60.5424099 -26.98150927 55.58790234 -23.04296875 48.50390625 C-22.69878906 48.00761719 -22.35460937 47.51132812 -22 47 C-21.34 47 -20.68 47 -20 47 C-19.71125 46.2575 -19.4225 45.515 -19.125 44.75 C-18.17697356 42.43260203 -17.15154089 40.22082885 -16 38 C-15.34 38 -14.68 38 -14 38 C-14 37.34 -14 36.68 -14 36 C-13.34 36 -12.68 36 -12 36 C-11.9175 35.360625 -11.835 34.72125 -11.75 34.0625 C-10.70479628 29.79458483 -8.85908174 25.96892333 -7 22 C-6.34 22 -5.68 22 -5 22 C-4.96261719 21.31035156 -4.92523437 20.62070312 -4.88671875 19.91015625 C-4.38933846 12.80054381 -3.20561801 6.41123602 0 0 Z " fill="#F2EEF2" transform="translate(937,862)"/>
<path d="M0 0 C0.33 0 0.66 0 1 0 C1.33 68.64 1.66 137.28 2 208 C2.33 208 2.66 208 3 208 C2.99476318 208.7520874 2.98952637 209.5041748 2.98413086 210.27905273 C2.96342773 213.66519342 2.95036123 217.05132084 2.9375 220.4375 C2.92912109 221.62150391 2.92074219 222.80550781 2.91210938 224.02539062 C2.90888672 225.15009766 2.90566406 226.27480469 2.90234375 227.43359375 C2.89710693 228.47572021 2.89187012 229.51784668 2.88647461 230.59155273 C2.72694444 232.95128747 2.72694444 232.95128747 4 234 C4.23481693 236.18292774 4.41363323 238.37203174 4.5625 240.5625 C4.64628906 241.76003906 4.73007813 242.95757813 4.81640625 244.19140625 C4.87699219 245.11824219 4.93757813 246.04507813 5 247 C4.34 247 3.68 247 3 247 C2.93941406 246.36191406 2.87882812 245.72382812 2.81640625 245.06640625 C2.73261719 244.24011719 2.64882812 243.41382813 2.5625 242.5625 C2.48128906 241.73878906 2.40007812 240.91507813 2.31640625 240.06640625 C2.21069185 238.01337975 2.21069185 238.01337975 1 237 C0.7548274 234.1022347 0.57553961 231.22810576 0.44459534 228.32440186 C0.40244103 227.42697352 0.36028672 226.52954519 0.31685501 225.60492206 C-0.1263699 215.34014269 -0.1328725 205.08197056 -0.11352539 194.80957031 C-0.11324247 192.66871644 -0.11340329 190.52786248 -0.1139679 188.38700867 C-0.11425179 182.64249974 -0.10842165 176.8980122 -0.10139394 171.15350819 C-0.09509188 165.12510604 -0.09455123 159.09670327 -0.09336853 153.06829834 C-0.09027525 141.68272625 -0.08208917 130.29716389 -0.07201904 118.91159606 C-0.0607953 105.93677341 -0.05533175 92.96195027 -0.05032361 79.98712397 C-0.03990463 53.32474394 -0.02234444 26.66237252 0 0 Z " fill="#5C2B5D" transform="translate(122,624)"/>
<path d="M0 0 C2.49838015 3.74757022 2.50377176 6.66284001 2 11 C1.38584323 12.87479435 0.76033631 14.74989192 0 16.5703125 C-1.34529309 19.83895431 -2.51024419 23.16827001 -3.6875 26.5 C-4.12449219 27.7271875 -4.56148437 28.954375 -5.01171875 30.21875 C-5.33785156 31.1365625 -5.66398438 32.054375 -6 33 C-6.66 33 -7.32 33 -8 33 C-8.2165625 33.928125 -8.2165625 33.928125 -8.4375 34.875 C-9 37 -9 37 -10 39 C-10.66 39 -11.32 39 -12 39 C-12 40.32 -12 41.64 -12 43 C-12.66 43 -13.32 43 -14 43 C-14 43.66 -14 44.32 -14 45 C-16.63892176 46.78305524 -18.97178863 47.99059621 -22 49 C-22 48.34 -22 47.68 -22 47 C-21.34 47 -20.68 47 -20 47 C-19.71125 46.2575 -19.4225 45.515 -19.125 44.75 C-18.17697356 42.43260203 -17.15154089 40.22082885 -16 38 C-15.34 38 -14.68 38 -14 38 C-14 37.34 -14 36.68 -14 36 C-13.34 36 -12.68 36 -12 36 C-11.9175 35.360625 -11.835 34.72125 -11.75 34.0625 C-10.70479628 29.79458483 -8.85908174 25.96892333 -7 22 C-6.34 22 -5.68 22 -5 22 C-4.96261719 21.31035156 -4.92523437 20.62070312 -4.88671875 19.91015625 C-4.38933846 12.80054381 -3.20561801 6.41123602 0 0 Z " fill="#EFEBF0" transform="translate(937,862)"/>
<path d="M0 0 C1.32 0 2.64 0 4 0 C4 0.66 4 1.32 4 2 C4.66 2 5.32 2 6 2 C6 2.66 6 3.32 6 4 C6.928125 4.2165625 6.928125 4.2165625 7.875 4.4375 C10 5 10 5 12 6 C12 6.66 12 7.32 12 8 C12.66 8 13.32 8 14 8 C14 8.66 14 9.32 14 10 C14.66 10 15.32 10 16 10 C16 10.66 16 11.32 16 12 C16.66 12 17.32 12 18 12 C18 12.66 18 13.32 18 14 C18.66 14 19.32 14 20 14 C20 14.66 20 15.32 20 16 C20.66 16 21.32 16 22 16 C22 16.66 22 17.32 22 18 C22.66 18 23.32 18 24 18 C24 18.66 24 19.32 24 20 C24.66 20 25.32 20 26 20 C26 20.66 26 21.32 26 22 C26.66 22 27.32 22 28 22 C28 22.66 28 23.32 28 24 C28.66 24 29.32 24 30 24 C30 24.66 30 25.32 30 26 C30.66 26 31.32 26 32 26 C32 26.66 32 27.32 32 28 C32.66 28 33.32 28 34 28 C34 28.66 34 29.32 34 30 C34.66 30 35.32 30 36 30 C36.66 31.98 37.32 33.96 38 36 C38.66 36 39.32 36 40 36 C40 37.32 40 38.64 40 40 C40.66 40 41.32 40 42 40 C48 50.2 48 50.2 48 56 C48.66 56 49.32 56 50 56 C49.67 58.64 49.34 61.28 49 64 C48.67 64 48.34 64 48 64 C47.84144531 63.40574219 47.68289063 62.81148437 47.51953125 62.19921875 C44.15401379 50.24326447 39.06040264 37.74495342 30 29 C28.90559879 27.75967863 27.82219406 26.50956778 26.75 25.25 C19.98844482 17.44827697 19.98844482 17.44827697 12 11 C12 10.34 12 9.68 12 9 C11.319375 8.79375 10.63875 8.5875 9.9375 8.375 C6.05852171 6.55930804 3.03879438 4.00376505 0 1 C0 0.67 0 0.34 0 0 Z " fill="#EFEBEF" transform="translate(885,63)"/>
<path d="M0 0 C0.99 0.33 1.98 0.66 3 1 C4.8172074 5.24015059 5.37636047 9.45634058 6 14 C6.33 14.33 6.66 14.66 7 15 C7.32097751 17.31817089 7.51220956 19.63779357 7.71875 21.96875 C7.79065837 23.99180593 7.79065837 23.99180593 9 25 C9.10032859 27.00448949 9.13081506 29.0125335 9.1328125 31.01953125 C9.13474609 32.89608398 9.13474609 32.89608398 9.13671875 34.81054688 C9.13357666 35.79849243 9.13357666 35.79849243 9.13037109 36.80639648 C9.12512421 38.7661074 9.13078922 40.72583791 9.13671875 42.68554688 C9.12874857 50.50828241 8.79778538 58.21750371 8 66 C7.67 66 7.34 66 7 66 C5.88203304 51.66606646 5.89227082 37.37107285 6 23 C5.34 23 4.68 23 4 23 C3.90912109 22.04287109 3.90912109 22.04287109 3.81640625 21.06640625 C3.73261719 20.24011719 3.64882813 19.41382813 3.5625 18.5625 C3.44068359 17.32693359 3.44068359 17.32693359 3.31640625 16.06640625 C3.21069185 14.01337975 3.21069185 14.01337975 2 13 C1.95907063 10.66702567 1.95758277 8.33294775 2 6 C1.34 6 0.68 6 0 6 C0 4.02 0 2.04 0 0 Z " fill="#F7F5F8" transform="translate(934,123)"/>
<path d="M0 0 C2.70448388 1.18997291 4.95928186 2.67788644 7.3125 4.4375 C10.71181787 6.92444684 14.07974034 8.47989932 18 10 C18 10.66 18 11.32 18 12 C18.5775 12.144375 19.155 12.28875 19.75 12.4375 C22.875 13.21875 22.875 13.21875 26 14 C26 14.66 26 15.32 26 16 C27.06927734 16.16435547 27.06927734 16.16435547 28.16015625 16.33203125 C35.56420201 17.55773465 41.31583549 19.65069943 48 23 C41.93680153 24.11832327 38.4770038 24.23641134 33 21 C30.26427415 20.30092586 30.26427415 20.30092586 28 20 C28 19.34 28 18.68 28 18 C26.68 18 25.36 18 24 18 C24 17.34 24 16.68 24 16 C22.8553125 15.7834375 22.8553125 15.7834375 21.6875 15.5625 C19 15 19 15 16 14 C16 13.34 16 12.68 16 12 C14.68 12 13.36 12 12 12 C12 11.34 12 10.68 12 10 C11.34 10 10.68 10 10 10 C10 9.34 10 8.68 10 8 C8.68 8 7.36 8 6 8 C6 7.34 6 6.68 6 6 C5.34 6 4.68 6 4 6 C4 5.34 4 4.68 4 4 C3.34 4 2.68 4 2 4 C2 3.34 2 2.68 2 2 C1.34 2 0.68 2 0 2 C0 1.34 0 0.68 0 0 Z " fill="#EBE6EB" transform="translate(167,933)"/>
<path d="M0 0 C0.33 0 0.66 0 1 0 C1.33 6.93 1.66 13.86 2 21 C2.33 21 2.66 21 3 21 C2.99476318 21.7520874 2.98952637 22.5041748 2.98413086 23.27905273 C2.96342773 26.66519342 2.95036123 30.05132084 2.9375 33.4375 C2.92912109 34.62150391 2.92074219 35.80550781 2.91210938 37.02539062 C2.90888672 38.15009766 2.90566406 39.27480469 2.90234375 40.43359375 C2.89448853 41.99678345 2.89448853 41.99678345 2.88647461 43.59155273 C2.72694444 45.95128747 2.72694444 45.95128747 4 47 C4.23481693 49.18292774 4.41363323 51.37203174 4.5625 53.5625 C4.64628906 54.76003906 4.73007813 55.95757813 4.81640625 57.19140625 C4.87699219 58.11824219 4.93757813 59.04507813 5 60 C4.34 60 3.68 60 3 60 C2.93941406 59.36191406 2.87882812 58.72382812 2.81640625 58.06640625 C2.73261719 57.24011719 2.64882812 56.41382813 2.5625 55.5625 C2.48128906 54.73878906 2.40007812 53.91507813 2.31640625 53.06640625 C2.21069185 51.01337975 2.21069185 51.01337975 1 50 C0.74671205 47.26386469 0.56750557 44.55569761 0.4375 41.8125 C0.3950415 40.95495117 0.35258301 40.09740234 0.30883789 39.21386719 C-0.25633444 26.1546337 -0.08511268 13.06806952 0 0 Z " fill="#5B295A" transform="translate(122,811)"/>
<path d="M0 0 C2.33294775 -0.04241723 4.66702567 -0.04092937 7 0 C7.33 0.33 7.66 0.66 8 1 C9.0725 1.144375 10.145 1.28875 11.25 1.4375 C14.52233274 1.92834991 17.01261388 2.64209722 20 4 C20 4.66 20 5.32 20 6 C21.98 6 23.96 6 26 6 C26 6.66 26 7.32 26 8 C27.98 8 29.96 8 32 8 C32 8.66 32 9.32 32 10 C33.32 10 34.64 10 36 10 C36 10.66 36 11.32 36 12 C37.093125 12.28875 38.18625 12.5775 39.3125 12.875 C43 14 43 14 46 16 C45.67 16.66 45.34 17.32 45 18 C40.95210158 16.36361553 37.20857715 14.58012138 33.4375 12.375 C29.95837762 10.39118535 27.0517905 9.31167619 23 9 C23 8.34 23 7.68 23 7 C21.35 7 19.7 7 18 7 C18 6.34 18 5.68 18 5 C16.576875 4.814375 16.576875 4.814375 15.125 4.625 C11.94722676 4.16266004 8.78412387 3.63894933 5.625 3.0625 C4.77164063 2.90910156 3.91828125 2.75570312 3.0390625 2.59765625 C2.36617187 2.40042969 1.69328125 2.20320313 1 2 C0.67 1.34 0.34 0.68 0 0 Z " fill="#C4B6C6" transform="translate(839,45)"/>
<path d="M0 0 C4.31762376 0.63073721 8.34039341 1.62524316 12.5 2.9375 C14.12421875 3.44603516 14.12421875 3.44603516 15.78125 3.96484375 C18.86153618 4.95546977 21.93272001 5.96987434 25 7 C25 7.33 25 7.66 25 8 C18.93680153 9.11832327 15.4770038 9.23641134 10 6 C7.26427415 5.30092586 7.26427415 5.30092586 5 5 C5 4.34 5 3.68 5 3 C3.68 3 2.36 3 1 3 C0.67 2.01 0.34 1.02 0 0 Z " fill="#F7F5F7" transform="translate(190,948)"/>
<path d="M0 0 C1.32 0 2.64 0 4 0 C4 0.66 4 1.32 4 2 C4.66 2 5.32 2 6 2 C6 2.66 6 3.32 6 4 C6.928125 4.2165625 6.928125 4.2165625 7.875 4.4375 C10 5 10 5 12 6 C12 6.66 12 7.32 12 8 C12.66 8 13.32 8 14 8 C14 8.66 14 9.32 14 10 C14.66 10 15.32 10 16 10 C16 10.66 16 11.32 16 12 C16.66 12 17.32 12 18 12 C18 12.66 18 13.32 18 14 C18.66 14 19.32 14 20 14 C20 14.66 20 15.32 20 16 C20.66 16 21.32 16 22 16 C22 16.66 22 17.32 22 18 C22.66 18 23.32 18 24 18 C23.67 18.99 23.34 19.98 23 21 C22.45730469 20.44570312 21.91460938 19.89140625 21.35546875 19.3203125 C20.64003906 18.59585938 19.92460938 17.87140625 19.1875 17.125 C18.47980469 16.40570313 17.77210938 15.68640625 17.04296875 14.9453125 C14.95600806 12.84641063 14.95600806 12.84641063 12 11 C12 10.34 12 9.68 12 9 C11.319375 8.79375 10.63875 8.5875 9.9375 8.375 C6.05852171 6.55930804 3.03879438 4.00376505 0 1 C0 0.67 0 0.34 0 0 Z " fill="#E2DCE3" transform="translate(885,63)"/>
<path d="M0 0 C6.60055009 5.53533163 12.46466837 11.39944991 18 18 C16.02 17.34 14.04 16.68 12 16 C12 15.34 12 14.68 12 14 C11.34 14 10.68 14 10 14 C10 13.34 10 12.68 10 12 C9.34 12 8.68 12 8 12 C8 11.34 8 10.68 8 10 C7.34 10 6.68 10 6 10 C6 9.34 6 8.68 6 8 C5.34 8 4.68 8 4 8 C4 7.34 4 6.68 4 6 C3.34 6 2.68 6 2 6 C2 5.34 2 4.68 2 4 C1.34 4 0.68 4 0 4 C0 2.68 0 1.36 0 0 Z " fill="#E3DCE4" transform="translate(149,915)"/>
<path d="M0 0 C0.33 0 0.66 0 1 0 C1.04982621 4.81972791 1.08591929 9.6393024 1.10986328 14.45922852 C1.11985617 16.09532283 1.13345507 17.73139959 1.15087891 19.36743164 C1.32450751 36.10216541 1.32450751 36.10216541 -1 44 C-1.33 44 -1.66 44 -2 44 C-2 40.37 -2 36.74 -2 33 C-1.34 33 -0.68 33 0 33 C0 22.11 0 11.22 0 0 Z " fill="#52315A" transform="translate(939,818)"/>
<path d="M0 0 C3.01349966 2.69062469 4.9338471 5.44824945 6.8515625 8.9921875 C8.65627959 12.14737317 10.75409318 15.09932707 12.828125 18.08203125 C14 20 14 20 14 22 C13.34 22 12.68 22 12 22 C12 21.34 12 20.68 12 20 C11.34 20 10.68 20 10 20 C10 18.68 10 17.36 10 16 C9.34 16 8.68 16 8 16 C8 15.34 8 14.68 8 14 C7.34 14 6.68 14 6 14 C4 11 4 11 4 8 C3.34 8 2.68 8 2 8 C2 6.68 2 5.36 2 4 C1.34 4 0.68 4 0 4 C0 2.68 0 1.36 0 0 Z " fill="#D9CED9" transform="translate(135,893)"/>
<path d="M0 0 C2.11892771 3.17839156 2.52473967 5.19888727 2.46875 8.9921875 C1.61153489 12.66392557 -0.96502656 13.97668438 -4 16 C-4.54046516 10.41519339 -2.47382709 4.94765418 0 0 Z " fill="#D5CCD6" transform="translate(937,862)"/>
<path d="M0 0 C-0.9375 2 -0.9375 2 -3 4 C-6.0368922 4.47833833 -8.96489411 4.49529242 -12 4 C-12.66 3.34 -13.32 2.68 -14 2 C-12.04396149 1.47061343 -10.08507711 0.95173199 -8.125 0.4375 C-7.03445313 0.14746094 -5.94390625 -0.14257812 -4.8203125 -0.44140625 C-2 -1 -2 -1 0 0 Z " fill="#E7E1E7" transform="translate(852,955)"/>
<path d="M0 0 C1.32 0 2.64 0 4 0 C4 0.66 4 1.32 4 2 C5.32 2 6.64 2 8 2 C8 2.66 8 3.32 8 4 C9.6396875 4.433125 9.6396875 4.433125 11.3125 4.875 C15 6 15 6 18 8 C17.67 8.66 17.34 9.32 17 10 C1.96 3.92 1.96 3.92 0 0 Z " fill="#E2DAE3" transform="translate(867,53)"/>
<path d="M0 0 C6.0261061 -0.54782783 10.76976703 2.36771645 16 5 C12.99070378 5.58040933 10.07054872 6.0493481 7 6 C5.1875 4.1875 5.1875 4.1875 4 2 C1.91665365 0.7483533 1.91665365 0.7483533 0 0 Z " fill="#CEC2CF" transform="translate(199,951)"/>
<path d="M0 0 C0.33 1.32 0.66 2.64 1 4 C0.34 4 -0.32 4 -1 4 C-1 4.66 -1 5.32 -1 6 C-3.63892176 7.78305524 -5.97178863 8.99059621 -9 10 C-9 9.34 -9 8.68 -9 8 C-8.34 8 -7.68 8 -7 8 C-6.773125 7.236875 -6.54625 6.47375 -6.3125 5.6875 C-4.73268318 2.45263699 -3.16717283 1.58358642 0 0 Z " fill="#E7E0E7" transform="translate(924,901)"/>
<path d="M0 0 C0.66 0 1.32 0 2 0 C1.45015228 3.87511727 -0.27555331 5.59576506 -3.0625 8.25 C-3.79597656 8.95640625 -4.52945313 9.6628125 -5.28515625 10.390625 C-5.85105469 10.92171875 -6.41695312 11.4528125 -7 12 C-7.33 11.01 -7.66 10.02 -8 9 C-7.50628906 8.51789062 -7.01257813 8.03578125 -6.50390625 7.5390625 C-5.86324219 6.90742187 -5.22257813 6.27578125 -4.5625 5.625 C-3.92441406 4.99851562 -3.28632812 4.37203125 -2.62890625 3.7265625 C-0.92117824 2.08276939 -0.92117824 2.08276939 0 0 Z " fill="#471949" transform="translate(909,914)"/>
<path d="M0 0 C1.79133978 -0.05391993 3.58313899 -0.09275571 5.375 -0.125 C6.37273437 -0.14820313 7.37046875 -0.17140625 8.3984375 -0.1953125 C11 0 11 0 13 2 C9.78548731 3.60725635 6.56387464 3.05748185 3 3 C3 2.34 3 1.68 3 1 C2.01 0.67 1.02 0.34 0 0 Z " fill="#ECE8EC" transform="translate(210,956)"/>
<path d="M0 0 C4.00301032 1.76132454 7.6028977 4.26132483 11 7 C11 7.33 11 7.66 11 8 C9.35 8 7.7 8 6 8 C6 7.34 6 6.68 6 6 C5.34 6 4.68 6 4 6 C4 5.34 4 4.68 4 4 C3.34 4 2.68 4 2 4 C2 3.34 2 2.68 2 2 C1.34 2 0.68 2 0 2 C0 1.34 0 0.68 0 0 Z " fill="#F3EFF3" transform="translate(167,933)"/>
<path d="M0 0 C1.485 0.99 1.485 0.99 3 2 C3.51171875 5.0390625 3.51171875 5.0390625 3.6875 8.625 C3.75324219 9.81351563 3.81898437 11.00203125 3.88671875 12.2265625 C3.92410156 13.14179687 3.96148437 14.05703125 4 15 C3.34 15 2.68 15 2 15 C1.93941406 14.36191406 1.87882812 13.72382812 1.81640625 13.06640625 C1.73261719 12.24011719 1.64882812 11.41382813 1.5625 10.5625 C1.48128906 9.73878906 1.40007812 8.91507813 1.31640625 8.06640625 C1.21069185 6.01337975 1.21069185 6.01337975 0 5 C-0.04063832 3.33382885 -0.042721 1.66611905 0 0 Z " fill="#AA92AB" transform="translate(123,856)"/>
<path d="M0 0 C0.66 0 1.32 0 2 0 C1.67 1.65 1.34 3.3 1 5 C-3.455 6.485 -3.455 6.485 -8 8 C-8 7.34 -8 6.68 -8 6 C-7.34 6 -6.68 6 -6 6 C-6 5.34 -6 4.68 -6 4 C-4.68 4 -3.36 4 -2 4 C-2 3.34 -2 2.68 -2 2 C-1.34 2 -0.68 2 0 2 C0 1.34 0 0.68 0 0 Z " fill="#714872" transform="translate(169,67)"/>
<path d="M0 0 C0.33 0 0.66 0 1 0 C1.21824777 6.0018137 0.5056904 11.19233704 -1 17 C-1.33 17 -1.66 17 -2 17 C-2 13.37 -2 9.74 -2 6 C-1.34 6 -0.68 6 0 6 C0 4.02 0 2.04 0 0 Z " fill="#67436A" transform="translate(939,845)"/>
<path d="M0 0 C2.70931419 0.15481795 4.46584039 0.48172081 6.4453125 2.40234375 C7.67679642 3.89771708 8.8429837 5.4462924 10 7 C8.02 6.34 6.04 5.68 4 5 C4 4.34 4 3.68 4 3 C3.34 3 2.68 3 2 3 C2 2.34 2 1.68 2 1 C1.34 0.67 0.68 0.34 0 0 Z " fill="#EFECF0" transform="translate(157,926)"/>
<path d="M0 0 C-0.33 0.99 -0.66 1.98 -1 3 C-3.31 3 -5.62 3 -8 3 C-6 0 -6 0 -4 -0.75 C-2 -1 -2 -1 0 0 Z " fill="#FCFCFD" transform="translate(858,954)"/>
<path d="M0 0 C0.33 0.66 0.66 1.32 1 2 C1.99 2 2.98 2 4 2 C3.67 4.64 3.34 7.28 3 10 C2.67 10 2.34 10 2 10 C1.34 6.7 0.68 3.4 0 0 Z " fill="#E2DAE2" transform="translate(931,117)"/>
<path d="M0 0 C1.32 0 2.64 0 4 0 C4 0.66 4 1.32 4 2 C4.66 2 5.32 2 6 2 C6.33 3.32 6.66 4.64 7 6 C1.125 2.25 1.125 2.25 0 0 Z " fill="#E0D8E1" transform="translate(885,63)"/>
<path d="M0 0 C2.64 0.33 5.28 0.66 8 1 C8 1.66 8 2.32 8 3 C8.66 3.33 9.32 3.66 10 4 C8.35 4 6.7 4 5 4 C5 3.34 5 2.68 5 2 C3.35 2 1.7 2 0 2 C0 1.34 0 0.68 0 0 Z " fill="#AD97AE" transform="translate(857,50)"/>
</svg>
